<svg width="1920" height="889" viewBox="0 0 1920 889" fill="none" xmlns="http://www.w3.org/2000/svg">
<g filter="url(#filter0_d_177_511)">
<path d="M1674.78 650.809L1614.67 685.513L1652.92 707.597L1713.03 672.893L1674.78 650.809Z" fill="#E1E7EA"/>
<path d="M1713.03 672.892L1653 707.552V745L1713.03 710.341V672.892Z" fill="#9B9FA8"/>
<path d="M1652.92 707.594L1614.67 685.51V722.87L1652.92 744.954V707.594Z" fill="#BDC4C8"/>
<path d="M1748.77 351.477L1560.24 460.321L1705.82 544.368L1894.34 435.524L1748.77 351.477Z" fill="#E1E7EA"/>
<path d="M1894.34 435.524L1705.82 544.367V620.083L1894.34 511.241V435.524Z" fill="#9B9FA8"/>
<path d="M1705.82 544.362L1560.24 460.315V536.032L1705.82 620.079V544.362Z" fill="#BDC4C8"/>
<path d="M1527.31 548.182L1553.6 563.358L1522.82 581.129L1496.53 565.953L1527.31 548.182Z" fill="#E1E7EA"/>
<path d="M1496.53 566.014L1522.98 581.01V605.316L1496.53 590.319V566.014Z" fill="#BDC4C8"/>
<path d="M1522.98 581.034L1553.6 563.357V587.639L1522.98 605.316V581.034Z" fill="#9B9FA8"/>
<path d="M1822.54 521.045L1740.57 568.368L1806.14 606.226L1888.11 558.903L1822.54 521.045Z" fill="#E1E7EA"/>
<path d="M1888.1 558.904L1806.14 606.227V650.809L1888.1 603.486V558.904Z" fill="#9B9FA8"/>
<path d="M1806.14 606.224L1740.57 568.366V612.948L1806.14 650.807V606.224Z" fill="#BDC4C8"/>
<path d="M1912.85 435.602L1871.11 459.702L1904.5 478.981L1946.24 454.882L1912.85 435.602Z" fill="#E1E7EA"/>
<path d="M1946.24 454.882L1904.5 478.548V516.673L1946.24 493.007V454.882Z" fill="#9B9FA8"/>
<path d="M1904.12 478.761L1871.11 459.698V497.823L1904.12 516.886V478.761Z" fill="#BDC4C8"/>
<path d="M1643.28 536.656L1602.3 560.318L1650.29 588.026L1691.28 564.364L1643.28 536.656Z" fill="#E1E7EA"/>
<path d="M1691.28 564.458L1650.04 587.84V625.735L1691.28 602.354V564.458Z" fill="#9B9FA8"/>
<path d="M1650.04 587.876L1602.3 560.317V598.175L1650.04 625.735V587.876Z" fill="#BDC4C8"/>
<path d="M1761.06 245L1670.9 297.056L1752.86 344.378L1843.02 292.323L1761.06 245Z" fill="#E1E7EA"/>
<path fill-rule="evenodd" clip-rule="evenodd" d="M1843.02 292.323L1752.86 344.379V396.302L1789.75 375.14L1810.35 387.037L1843.02 368.173V292.323Z" fill="#9B9FA8"/>
<path fill-rule="evenodd" clip-rule="evenodd" d="M1752.86 344.381L1670.9 297.057V358.574L1703.68 377.503L1712 372.706L1752.86 396.301V344.381Z" fill="#BDC4C8"/>
<path d="M1972.8 319.929L1912.69 354.633L1950.94 376.717L2011.05 342.013L1972.8 319.929Z" fill="#E1E7EA"/>
<path d="M1950.95 376.714L1912.69 354.63V391.99L1950.95 414.074V376.714Z" fill="#BDC4C8"/>
<path d="M1547.11 414.358L1484 450.797L1502.87 461.689L1565.98 425.251L1547.11 414.358Z" fill="#E1E7EA"/>
<path d="M1566.12 425.169L1502.87 461.689V474.516L1566.12 437.996V425.169Z" fill="#9B9FA8"/>
<path d="M1502.87 461.688L1484 450.796V463.623L1502.87 474.515V461.688Z" fill="#BDC4C8"/>
<path d="M12.1721 741L-76.9999 792.484L-20.2545 825.245L68.9175 773.762L12.1721 741Z" fill="#E1E7EA"/>
<path d="M68.9159 773.761L-20.1419 825.178L-20.1419 880.733L68.9159 829.316V773.761Z" fill="#9B9FA8"/>
<path d="M225.158 377.136L-54.5177 538.607L161.443 663.292L441.119 501.821L225.158 377.136Z" fill="#E1E7EA"/>
<path d="M441.119 501.821L161.445 663.291V775.617L441.119 614.148V501.821Z" fill="#9B9FA8"/>
<path d="M161.443 663.284L-54.518 538.599L-54.518 650.926L161.443 775.611V663.284Z" fill="#BDC4C8"/>
<path d="M217.902 302.253L286.155 341.658L206.231 387.803L137.978 348.397L217.902 302.253Z" fill="#E1E7EA"/>
<path d="M137.979 348.554L206.659 387.494V450.604L137.979 411.664V348.554Z" fill="#BDC4C8"/>
<path d="M206.658 387.554L286.155 341.657V404.706L206.658 450.603V387.554Z" fill="#9B9FA8"/>
<path d="M244.743 656.812L123.145 727.017L220.423 783.181L342.021 712.976L244.743 656.812Z" fill="#E1E7EA"/>
<path d="M342.016 712.977L220.418 783.181V849.32L342.016 779.115V712.977Z" fill="#9B9FA8"/>
<path d="M220.421 783.177L123.143 727.014V793.153L220.421 849.316V783.177Z" fill="#BDC4C8"/>
<path d="M419.462 557.417L357.539 593.168L407.077 621.769L469 586.018L419.462 557.417Z" fill="#E1E7EA"/>
<path d="M468.997 586.018L407.075 621.127V677.686L468.997 642.578V586.018Z" fill="#9B9FA8"/>
<path d="M406.52 621.443L357.538 593.163V649.723L406.52 678.002V621.443Z" fill="#BDC4C8"/>
<path d="M-28.2005 594.505L-88.9996 629.607L-17.8037 670.712L42.9953 635.61L-28.2005 594.505Z" fill="#E1E7EA"/>
<path d="M42.994 635.75L-18.1856 670.437V726.655L42.994 691.968V635.75Z" fill="#9B9FA8"/>
<path d="M15.015 371.978L-78.6156 426.035L-50.6281 442.194L43.0025 388.136L15.015 371.978Z" fill="#E1E7EA"/>
<path d="M43.2139 388.015L-50.6261 442.194V461.222L43.2139 407.044V388.015Z" fill="#9B9FA8"/>
<g filter="url(#filter1_f_177_511)">
<path d="M65.4545 10L-28.1761 64.0578L-0.188651 80.2163L93.442 26.1586L65.4545 10Z" fill="#E1E7EA"/>
<path d="M93.6534 26.0376L-0.1866 80.2161L-0.1866 99.2447L93.6534 45.0662V26.0376Z" fill="#9B9FA8"/>
</g>
<g filter="url(#filter2_f_177_511)">
<path d="M166.676 163L141 177.824L161.541 189.683L187.217 174.859L166.676 163Z" fill="#E1E7EA"/>
<path d="M187.216 174.859L161.54 189.417V212.869L187.216 198.311V174.859Z" fill="#9B9FA8"/>
<path d="M161.31 189.548L141 177.822V201.274L161.31 213V189.548Z" fill="#BDC4C8"/>
</g>
<path d="M513.44 345L440 387.401L461.952 400.075L535.392 357.674L513.44 345Z" fill="#E1E7EA"/>
<path d="M535.558 357.579L461.954 400.075V415L535.558 372.505V357.579Z" fill="#9B9FA8"/>
<path d="M461.954 400.073L440.001 387.399V402.325L461.954 414.999V400.073Z" fill="#BDC4C8"/>
<g filter="url(#filter3_f_177_511)">
<path d="M1512.68 774L1487 788.824L1507.54 800.683L1533.22 785.859L1512.68 774Z" fill="#E1E7EA"/>
<path d="M1533.22 785.859L1507.54 800.417V823.869L1533.22 809.311V785.859Z" fill="#9B9FA8"/>
<path d="M1507.31 800.548L1487 788.822V812.274L1507.31 824V800.548Z" fill="#BDC4C8"/>
</g>
<g filter="url(#filter4_f_177_511)">
<path d="M13.1086 171L-47 205.704L-8.74941 227.788L51.3592 193.084L13.1086 171Z" fill="#E1E7EA"/>
<path d="M51.3584 193.083L-8.67316 227.742L-8.67316 265.191L51.3584 230.531V193.083Z" fill="#9B9FA8"/>
</g>
<g filter="url(#filter5_f_177_511)">
<path d="M422.109 728L362 762.704L400.251 784.788L460.359 750.084L422.109 728Z" fill="#E1E7EA"/>
<path d="M460.358 750.083L400.327 784.742V822.191L460.358 787.532V750.083Z" fill="#9B9FA8"/>
<path d="M400.251 784.785L362 762.701V800.061L400.251 822.145V784.785Z" fill="#BDC4C8"/>
</g>
<g filter="url(#filter6_f_177_511)">
<path d="M1804.11 72L1744 106.704L1782.25 128.788L1842.36 94.084L1804.11 72Z" fill="#E1E7EA"/>
<path d="M1842.36 94.0831L1782.33 128.742V166.191L1842.36 131.531V94.0831Z" fill="#9B9FA8"/>
<path d="M1782.25 128.785L1744 106.701V144.061L1782.25 166.145V128.785Z" fill="#BDC4C8"/>
</g>
</g>
<defs>
<filter id="filter0_d_177_511" x="-93" y="10" width="2108.05" height="878.733" filterUnits="userSpaceOnUse" color-interpolation-filters="sRGB">
<feFlood flood-opacity="0" result="BackgroundImageFix"/>
<feColorMatrix in="SourceAlpha" type="matrix" values="0 0 0 0 0 0 0 0 0 0 0 0 0 0 0 0 0 0 127 0" result="hardAlpha"/>
<feOffset dy="4"/>
<feGaussianBlur stdDeviation="2"/>
<feComposite in2="hardAlpha" operator="out"/>
<feColorMatrix type="matrix" values="0 0 0 0 0 0 0 0 0 0 0 0 0 0 0 0 0 0 0.25 0"/>
<feBlend mode="normal" in2="BackgroundImageFix" result="effect1_dropShadow_177_511"/>
<feBlend mode="normal" in="SourceGraphic" in2="effect1_dropShadow_177_511" result="shape"/>
</filter>
<filter id="filter1_f_177_511" x="-38.1761" y="1.52588e-05" width="141.83" height="109.245" filterUnits="userSpaceOnUse" color-interpolation-filters="sRGB">
<feFlood flood-opacity="0" result="BackgroundImageFix"/>
<feBlend mode="normal" in="SourceGraphic" in2="BackgroundImageFix" result="shape"/>
<feGaussianBlur stdDeviation="5" result="effect1_foregroundBlur_177_511"/>
</filter>
<filter id="filter2_f_177_511" x="131" y="153" width="66.217" height="70" filterUnits="userSpaceOnUse" color-interpolation-filters="sRGB">
<feFlood flood-opacity="0" result="BackgroundImageFix"/>
<feBlend mode="normal" in="SourceGraphic" in2="BackgroundImageFix" result="shape"/>
<feGaussianBlur stdDeviation="5" result="effect1_foregroundBlur_177_511"/>
</filter>
<filter id="filter3_f_177_511" x="1477" y="764" width="66.2169" height="70" filterUnits="userSpaceOnUse" color-interpolation-filters="sRGB">
<feFlood flood-opacity="0" result="BackgroundImageFix"/>
<feBlend mode="normal" in="SourceGraphic" in2="BackgroundImageFix" result="shape"/>
<feGaussianBlur stdDeviation="5" result="effect1_foregroundBlur_177_511"/>
</filter>
<filter id="filter4_f_177_511" x="-57" y="161" width="118.359" height="114.191" filterUnits="userSpaceOnUse" color-interpolation-filters="sRGB">
<feFlood flood-opacity="0" result="BackgroundImageFix"/>
<feBlend mode="normal" in="SourceGraphic" in2="BackgroundImageFix" result="shape"/>
<feGaussianBlur stdDeviation="5" result="effect1_foregroundBlur_177_511"/>
</filter>
<filter id="filter5_f_177_511" x="352" y="718" width="118.359" height="114.191" filterUnits="userSpaceOnUse" color-interpolation-filters="sRGB">
<feFlood flood-opacity="0" result="BackgroundImageFix"/>
<feBlend mode="normal" in="SourceGraphic" in2="BackgroundImageFix" result="shape"/>
<feGaussianBlur stdDeviation="5" result="effect1_foregroundBlur_177_511"/>
</filter>
<filter id="filter6_f_177_511" x="1734" y="62" width="118.359" height="114.191" filterUnits="userSpaceOnUse" color-interpolation-filters="sRGB">
<feFlood flood-opacity="0" result="BackgroundImageFix"/>
<feBlend mode="normal" in="SourceGraphic" in2="BackgroundImageFix" result="shape"/>
<feGaussianBlur stdDeviation="5" result="effect1_foregroundBlur_177_511"/>
</filter>
</defs>
</svg>
