
<svg viewBox="73.254 123 489.974 232.7" width="489.974" height="232.7">
  <g>
    <path d="M 107.254 248.7 L 175.354 248.7 L 175.354 218.7 L 73.254 218.7 L 73.254 355.7 L 107.254 355.7 L 107.254 307.3 L 166.154 307.3 L 166.154 277.7 L 107.254 277.7 L 107.254 248.7 Z M 183.554 218.7 L 183.554 355.7 L 238.754 355.7 C 281.654 355.7 312.654 327.5 312.654 286.8 C 312.654 246.7 281.654 218.7 238.754 218.7 L 183.554 218.7 L 183.554 218.7 Z M 217.554 325.1 L 217.554 249.3 L 238.654 249.3 C 260.754 249.3 277.954 265.6 277.954 286.8 C 277.954 308.6 260.854 325.1 238.654 325.1 L 217.554 325.1 L 217.554 325.1 Z M 467.454 218.7 L 442.154 218.7 L 393.654 291.8 L 344.854 218.7 L 319.654 218.7 L 319.654 355.7 L 353.654 355.7 L 353.454 286.6 L 384.054 333.9 L 384.054 334.1 L 402.954 334.1 L 402.954 333.9 L 433.354 287 L 433.354 355.7 L 467.354 355.7 L 467.454 218.7 Z" style="fill: rgb(255, 255, 255);"></path>
    <path d="M 485.054 123.5 L 514.054 163.5 C 514.254 163.8 514.654 163.9 515.054 163.8 L 562.054 148.5 C 562.554 148.3 563.054 148.6 563.154 149.1 C 563.254 149.4 563.154 149.7 563.054 149.9 L 534.054 189.9 C 533.854 190.2 533.854 190.6 534.054 190.9 L 563.054 230.9 C 563.354 231.3 563.254 231.9 562.854 232.1 C 562.654 232.3 562.354 232.3 562.054 232.2 L 515.054 216.9 C 514.654 216.8 514.254 216.9 514.054 217.2 L 485.054 257.2 C 484.754 257.6 484.254 257.7 483.854 257.4 C 483.654 257.2 483.454 257 483.454 256.7 L 483.454 207.2 C 483.454 206.8 483.154 206.5 482.854 206.4 L 435.854 191.1 C 435.354 191 435.154 190.5 435.254 190 C 435.354 189.7 435.554 189.5 435.854 189.4 L 482.854 174.1 C 483.254 174 483.454 173.6 483.454 173.3 L 483.454 123.9 C 483.454 123.4 483.854 123 484.354 123 C 484.654 123.1 484.854 123.3 485.054 123.5" style="fill: rgb(255, 255, 255);"></path>
  </g>
</svg>