<?xml version="1.0" encoding="UTF-8"?>
<svg width="489.97" height="232.7" viewBox="73.254 123 489.97 232.7"
  xmlns="http://www.w3.org/2000/svg">
  <g fill="#fff">
    <path
      d="m107.25 248.7h68.1v-30h-102.1v137h34v-48.4h58.9v-29.6h-58.9v-29zm76.3-30v137h55.2c42.9 0 73.9-28.2 73.9-68.9 0-40.1-31-68.1-73.9-68.1h-55.2zm34 106.4v-75.8h21.1c22.1 0 39.3 16.3 39.3 37.5 0 21.8-17.1 38.3-39.3 38.3h-21.1zm249.9-106.4h-25.3l-48.5 73.1-48.8-73.1h-25.2v137h34l-0.2-69.1 30.6 47.3v0.2h18.9v-0.2l30.4-46.9v68.7h34l0.1-137z" />
    <path
      d="m485.05 123.5 29 40c0.2 0.3 0.6 0.4 1 0.3l47-15.3c0.5-0.2 1 0.1 1.1 0.6 0.1 0.3 0 0.6-0.1 0.8l-29 40c-0.2 0.3-0.2 0.7 0 1l29 40c0.3 0.4 0.2 1-0.2 1.2-0.2 0.2-0.5 0.2-0.8 0.1l-47-15.3c-0.4-0.1-0.8 0-1 0.3l-29 40c-0.3 0.4-0.8 0.5-1.2 0.2-0.2-0.2-0.4-0.4-0.4-0.7v-49.5c0-0.4-0.3-0.7-0.6-0.8l-47-15.3c-0.5-0.1-0.7-0.6-0.6-1.1 0.1-0.3 0.3-0.5 0.6-0.6l47-15.3c0.4-0.1 0.6-0.5 0.6-0.8v-49.4c0-0.5 0.4-0.9 0.9-0.9 0.3 0.1 0.5 0.3 0.7 0.5" />
  </g>
</svg>