<svg width="40" height="41" viewBox="0 0 40 41" fill="none" xmlns="http://www.w3.org/2000/svg">
<rect y="0.990723" width="40" height="40" rx="6" fill="white"/>
<path d="M19.9962 13.8074C16.0211 13.8074 12.813 17.0155 12.813 20.9907C12.813 24.9659 16.0211 28.1741 19.9962 28.1741C23.9713 28.1741 27.1795 24.9659 27.1795 20.9907C27.1795 17.0155 23.9713 13.8074 19.9962 13.8074ZM19.9962 25.6594C17.4255 25.6594 15.3277 23.5615 15.3277 20.9907C15.3277 18.42 17.4255 16.3221 19.9962 16.3221C22.5669 16.3221 24.6648 18.42 24.6648 20.9907C24.6648 23.5615 22.5669 25.6594 19.9962 25.6594ZM27.4737 11.839C26.5455 11.839 25.796 12.5885 25.796 13.5167C25.796 14.4448 26.5455 15.1943 27.4737 15.1943C28.4018 15.1943 29.1513 14.4483 29.1513 13.5167C29.1515 13.2963 29.1083 13.078 29.0241 12.8743C28.9399 12.6707 28.8163 12.4856 28.6605 12.3298C28.5047 12.174 28.3196 12.0504 28.116 11.9662C27.9123 11.882 27.694 11.8388 27.4737 11.839V11.839ZM33.9984 20.9907C33.9984 19.0574 34.0159 17.1416 33.9074 15.2118C33.7988 12.9703 33.2875 10.981 31.6484 9.34185C30.0058 7.69924 28.02 7.1914 25.7785 7.08283C23.8453 6.97425 21.9295 6.99176 19.9997 6.99176C18.0665 6.99176 16.1507 6.97425 14.2209 7.08283C11.9795 7.1914 9.99016 7.70274 8.35109 9.34185C6.70851 10.9845 6.20067 12.9703 6.0921 15.2118C5.98353 17.1451 6.00104 19.0609 6.00104 20.9907C6.00104 22.9205 5.98353 24.8398 6.0921 26.7696C6.20067 29.0111 6.71201 31.0005 8.35109 32.6396C9.99367 34.2822 11.9795 34.79 14.2209 34.8986C16.1542 35.0072 18.07 34.9897 19.9997 34.9897C21.933 34.9897 23.8488 35.0072 25.7785 34.8986C28.02 34.79 30.0093 34.2787 31.6484 32.6396C33.291 30.997 33.7988 29.0111 33.9074 26.7696C34.0195 24.8398 33.9984 22.924 33.9984 20.9907V20.9907ZM30.9164 29.2493C30.6607 29.8867 30.3525 30.3631 29.8587 30.8534C29.3649 31.3472 28.8921 31.6554 28.2547 31.9111C26.4125 32.6431 22.0381 32.4785 19.9962 32.4785C17.9544 32.4785 13.5765 32.6431 11.7343 31.9146C11.0969 31.6589 10.6206 31.3507 10.1303 30.8569C9.63643 30.3631 9.32823 29.8902 9.07256 29.2528C8.34408 27.4071 8.50869 23.0326 8.50869 20.9907C8.50869 18.9488 8.34408 14.5709 9.07256 12.7286C9.32823 12.0912 9.63643 11.6149 10.1303 11.1246C10.6241 10.6342 11.0969 10.3225 11.7343 10.0668C13.5765 9.33835 17.9544 9.50296 19.9962 9.50296C22.0381 9.50296 26.416 9.33835 28.2582 10.0668C28.8956 10.3225 29.3719 10.6307 29.8622 11.1246C30.356 11.6184 30.6642 12.0912 30.9199 12.7286C31.6484 14.5709 31.4838 18.9488 31.4838 20.9907C31.4838 23.0326 31.6484 27.4071 30.9164 29.2493Z" fill="#887CA4"/>
</svg>
