<svg width="125" height="219" viewBox="0 0 125 219" fill="none" xmlns="http://www.w3.org/2000/svg">
<g clip-path="url(#clip0_486_30)">
<path d="M7.00122 85.2254C7.00122 84.3946 8.77061 84.0349 9.95127 84.0349H115.688C116.869 84.0349 117.111 84.3978 117.111 85.2254V198.004C117.111 198.835 116.615 199.825 115.568 200.207L64.9743 218.717C63.9241 219.099 62.2979 219.102 61.2446 218.726L9.27024 200.197C8.21688 199.818 7.00122 198.832 7.00122 198.004V85.2254Z" fill="#F7F7F7"/>
<path opacity="0.42" d="M113.327 124.359V111.416H10.9696L113.327 124.359Z" fill="#E0E0E0"/>
<path d="M120.071 105.843C120.071 105.843 69.226 122.656 5.07275 105.843V73.1263C64.252 88.5359 120.071 73.1263 120.071 73.1263V105.843Z" fill="white"/>
<path d="M120.071 73.1263V105.843C120.071 105.843 97.4694 113.313 63.3991 113.313C46.3607 113.313 26.4582 111.445 5.07274 105.843V73.1263C24.797 78.2639 44.1522 79.9764 61.1873 79.9764C95.2609 79.9764 120.067 73.1263 120.067 73.1263M125.026 66.6136L118.75 68.3452C118.483 68.4184 94.0961 75.0171 61.1873 75.0171C41.8258 75.0171 23.365 72.7666 6.32023 68.3293L0.114624 66.7091V109.669L3.81571 110.64C23.1454 115.704 43.1911 118.273 63.3991 118.273C97.8704 118.273 120.672 110.866 121.627 110.55L125.029 109.427V66.6104L125.026 66.6136Z" fill="#F7F7F7"/>
<path d="M24.0778 85.9161C24.4215 85.9798 24.7365 86.1103 25.0198 86.3013C25.303 86.4923 25.5385 86.7183 25.7199 86.9793C25.9045 87.2403 26.0381 87.5332 26.1209 87.8642C26.2036 88.1953 26.2163 88.5295 26.1559 88.8701C25.5703 92.1806 24.9847 95.491 24.3992 98.8015C24.3387 99.1421 24.2083 99.454 24.0109 99.7341C23.8105 100.014 23.5718 100.247 23.2949 100.431C23.0149 100.616 22.6998 100.74 22.3466 100.807C21.9933 100.874 21.6305 100.874 21.2614 100.804C18.5436 100.288 15.8323 99.7246 13.1273 99.1102C12.7613 99.0275 12.4271 98.8843 12.1312 98.6805C11.832 98.4768 11.587 98.2349 11.3992 97.9516C11.2083 97.6683 11.081 97.3627 11.0174 97.0253C10.9537 96.6911 10.9633 96.3568 11.0428 96.0194C11.8289 92.7503 12.6117 89.4813 13.3978 86.2122C13.4773 85.8748 13.6205 85.5724 13.821 85.3018C14.0215 85.0312 14.2634 84.8148 14.5434 84.6492C14.8235 84.4869 15.1322 84.3723 15.4695 84.3118C15.8068 84.2482 16.1473 84.2577 16.4878 84.3341C19.0115 84.9071 21.5414 85.4355 24.081 85.9161H24.0778ZM22.0824 89.2775C20.3703 88.9433 18.6614 88.5868 16.9556 88.208C16.3956 90.745 15.8355 93.2819 15.2754 95.8157C17.0416 96.2072 18.8141 96.5765 20.5867 96.9234C21.0864 94.3737 21.5828 91.824 22.0824 89.2775Z" fill="#122F4C"/>
<path d="M41.4312 88.5836C41.5012 88.6696 41.533 88.7714 41.5203 88.886C41.4216 89.8346 41.323 90.78 41.2243 91.7285C41.2116 91.8431 41.1607 91.9355 41.0716 92.0055C40.9825 92.0755 40.8775 92.1042 40.7597 92.0914C38.2934 91.8304 35.8334 91.5248 33.3766 91.1779C33.3034 91.1683 33.2621 91.1906 33.2557 91.2479C33.1443 92.0278 33.0361 92.8044 32.9247 93.5843C32.9152 93.6575 32.947 93.6957 33.0202 93.7085C34.9042 93.9758 36.7913 94.2146 38.6816 94.4342C38.7994 94.4469 38.8917 94.4979 38.9585 94.587C39.0253 94.6761 39.0508 94.7748 39.038 94.8894C38.9362 95.787 38.8344 96.6815 38.7357 97.5792C38.723 97.6937 38.6753 97.7861 38.5893 97.8561C38.5034 97.9261 38.4016 97.9548 38.2806 97.942C36.3617 97.7224 34.4427 97.4773 32.5269 97.2067C32.4506 97.1972 32.4092 97.2258 32.3996 97.299C32.1705 98.9065 31.9446 100.514 31.7154 102.121C31.6772 102.392 31.5118 102.507 31.219 102.465C30.1529 102.312 29.09 102.15 28.0239 101.981C27.7311 101.934 27.607 101.778 27.6484 101.504C28.4026 96.7866 29.16 92.0723 29.9142 87.3549C29.9588 87.0843 30.1147 86.9697 30.3884 87.0143C33.9654 87.5809 37.5519 88.0552 41.148 88.4372C41.2625 88.4499 41.358 88.5008 41.428 88.5868L41.4312 88.5836Z" fill="#122F4C"/>
<path d="M55.249 89.5799C55.3254 89.6627 55.3636 89.7614 55.3572 89.876C55.3191 90.8277 55.2841 91.7795 55.2459 92.7312C55.2427 92.8458 55.1981 92.9413 55.1122 93.0177C55.0263 93.0941 54.9276 93.1291 54.8099 93.126C52.3372 93.0241 49.8645 92.8809 47.3918 92.6962C47.3186 92.6899 47.2804 92.7153 47.274 92.7726C47.2136 93.5557 47.1563 94.3419 47.0958 95.125C47.0895 95.1982 47.1245 95.2364 47.2009 95.2427C49.0944 95.386 50.991 95.5038 52.8909 95.5961C53.0118 95.6024 53.1041 95.647 53.1773 95.7298C53.2473 95.8125 53.2823 95.9112 53.276 96.0258C53.2346 96.9266 53.1901 97.8275 53.1487 98.7283C53.1423 98.8429 53.101 98.9384 53.0214 99.0148C52.9418 99.0912 52.84 99.1262 52.7191 99.1198C50.7906 99.0243 48.8652 98.9065 46.9399 98.7601C46.8635 98.7537 46.8222 98.7888 46.819 98.8588C46.6949 100.479 46.5739 102.096 46.4498 103.716C46.4307 103.99 46.2716 104.114 45.9756 104.092C44.9032 104.009 43.8339 103.917 42.7615 103.818C42.4655 103.789 42.3318 103.64 42.3573 103.366C42.8028 98.6105 43.2515 93.8549 43.6971 89.0993C43.7225 88.8255 43.8721 88.7014 44.149 88.7269C47.7482 89.0579 51.3538 89.2966 54.9595 89.4431C55.074 89.4462 55.1727 89.4908 55.249 89.5736V89.5799Z" fill="#122F4C"/>
<path d="M61.2319 104.353C61.2319 104.627 61.0792 104.763 60.7832 104.76C59.7107 104.748 58.6351 104.725 57.5626 104.697C57.2667 104.69 57.1235 104.547 57.1298 104.273C57.2667 99.4986 57.4035 94.7239 57.5372 89.9492C57.5435 89.6754 57.6868 89.5417 57.9636 89.5481C58.9661 89.5736 59.9685 89.5958 60.971 89.6054C61.2478 89.6086 61.3847 89.7486 61.3815 90.0224C61.3306 94.7971 61.2828 99.575 61.2319 104.35V104.353Z" fill="#122F4C"/>
<path d="M68.7868 93.352C68.7072 93.4252 68.669 93.5207 68.6722 93.6353L68.8345 100.648C68.8345 100.762 68.8823 100.855 68.9682 100.925C69.0541 100.995 69.1591 101.03 69.2801 101.027C71.7368 100.963 74.1936 100.861 76.6472 100.718C76.7713 100.711 76.8764 100.743 76.9655 100.82C77.0546 100.893 77.1023 100.988 77.1087 101.103C77.166 102.055 77.2232 103.003 77.2805 103.955C77.2869 104.07 77.2487 104.171 77.1691 104.254C77.0896 104.34 76.9846 104.385 76.8604 104.391C75.2374 104.487 73.6113 104.563 71.9851 104.623C70.6485 104.671 69.3087 104.709 67.9721 104.735C67.8321 104.735 67.6921 104.741 67.552 104.741C67.1797 104.748 66.8233 104.687 66.4891 104.563C66.1518 104.439 65.859 104.261 65.6108 104.031C65.3594 103.802 65.1653 103.535 65.0252 103.223C64.8852 102.914 64.812 102.586 64.812 102.239V101.851C64.8057 101.326 64.8057 100.797 64.8025 100.272C64.7929 98.5914 64.7834 96.9107 64.777 95.23C64.777 94.7621 64.7707 94.291 64.7707 93.8231C64.7707 93.266 64.7643 92.7121 64.7611 92.1551C64.7611 91.8081 64.8248 91.4803 64.9521 91.1683C65.0825 90.8564 65.2607 90.589 65.4931 90.363C65.7254 90.137 65.9959 89.9555 66.3077 89.8123C66.6196 89.6722 66.9474 89.599 67.2975 89.5927C67.4279 89.5927 67.5584 89.5895 67.6889 89.5863C70.4575 89.5322 73.223 89.4271 75.9853 89.2648C76.103 89.2584 76.2017 89.2935 76.2876 89.3667C76.3735 89.4399 76.4181 89.5354 76.4245 89.65C76.4817 90.6017 76.539 91.5503 76.5963 92.5021C76.6027 92.6167 76.5677 92.7185 76.4913 92.8013C76.4149 92.884 76.3163 92.9318 76.1985 92.9381C73.8308 93.075 71.46 93.1769 69.0859 93.2342C68.9682 93.2342 68.8695 93.2756 68.79 93.3488L68.7868 93.352Z" fill="#122F4C"/>
<path d="M85.0678 103.35C85.0932 103.624 84.9596 103.774 84.6636 103.802C83.5943 103.901 82.5219 103.993 81.4526 104.079C81.1567 104.101 81.0007 103.977 80.9784 103.704C80.6125 98.9416 80.2497 94.1796 79.8837 89.4176C79.8614 89.1438 79.9887 88.9974 80.2656 88.9751C81.2649 88.8956 82.2641 88.8096 83.2634 88.7173C83.5371 88.6918 83.6898 88.816 83.7153 89.0865C84.1672 93.8422 84.6159 98.5978 85.0678 103.353V103.35Z" fill="#122F4C"/>
<path d="M97.2561 86.9443C97.603 86.8902 97.9403 86.9029 98.2713 86.9888C98.6023 87.0748 98.8982 87.2053 99.1592 87.3899C99.4201 87.5714 99.6461 87.8037 99.837 88.087C100.028 88.3703 100.152 88.6791 100.213 89.0229C100.906 93.0336 101.597 97.0444 102.291 101.052C102.31 101.167 102.284 101.268 102.214 101.361C102.144 101.453 102.046 101.51 101.921 101.533C100.852 101.714 99.7797 101.889 98.7105 102.058C98.5864 102.077 98.475 102.055 98.3795 101.988C98.2809 101.924 98.2236 101.832 98.2077 101.717C98.0104 100.441 97.813 99.1643 97.6189 97.8879C97.5998 97.7733 97.5489 97.6842 97.4598 97.6173C97.3707 97.5505 97.2689 97.525 97.1479 97.5441C95.6522 97.7733 94.1533 97.9834 92.6544 98.1808C92.5335 98.1967 92.4349 98.2508 92.3617 98.3399C92.2885 98.429 92.2598 98.5309 92.2726 98.6455C92.438 99.9251 92.6035 101.208 92.769 102.488C92.804 102.758 92.6735 102.914 92.3808 102.952C91.3147 103.089 90.2454 103.216 89.1761 103.337C88.8802 103.369 88.721 103.252 88.6892 102.978C88.2405 98.932 87.7918 94.8894 87.3431 90.8436C87.3049 90.4998 87.3335 90.1656 87.4322 89.8441C87.5277 89.5226 87.6804 89.2361 87.8873 88.9879C88.0941 88.7396 88.3455 88.5295 88.6383 88.3544C88.9343 88.1825 89.2525 88.0743 89.5994 88.0297C92.1548 87.7146 94.7071 87.3517 97.2561 86.9443ZM97.0588 94.2719C96.8647 93.0177 96.6738 91.7604 96.4796 90.5062C94.7612 90.7704 93.0395 91.0155 91.3147 91.2383C91.477 92.4989 91.6393 93.7562 91.8048 95.0167C93.5582 94.7907 95.3117 94.5424 97.0588 94.2719Z" fill="#122F4C"/>
<path d="M115.501 95.0008C115.622 94.9722 115.727 94.9881 115.822 95.0454C115.914 95.1059 115.975 95.1918 116.003 95.3032C116.226 96.2295 116.449 97.1558 116.672 98.0821C116.697 98.1935 116.684 98.2985 116.627 98.394C116.57 98.4895 116.481 98.5532 116.357 98.5819C113.063 99.3649 109.76 100.075 106.444 100.711C106.151 100.769 105.979 100.66 105.928 100.39C105.04 95.6979 104.149 91.0028 103.261 86.3108C103.21 86.0403 103.322 85.8811 103.592 85.8302C104.582 85.6392 105.568 85.445 106.555 85.2413C106.825 85.184 106.991 85.2922 107.045 85.5596C107.771 89.042 108.496 92.5243 109.222 96.0067C109.244 96.1213 109.305 96.2041 109.403 96.255C109.502 96.3091 109.61 96.3218 109.731 96.2964C111.66 95.8921 113.582 95.4592 115.504 95.0008H115.501Z" fill="#122F4C"/>
<path d="M125.105 66.604L118.769 63.4623L118.699 0H5.72828L5.84921 63.9684L0.0350342 66.8523L5.84921 70.8917V70.9808H5.97969L6.33611 71.2291L6.36157 70.9808H8.3219C8.3219 70.9808 62.5557 87.269 117.948 71.2291H118.775V70.9936C118.775 70.9936 118.801 70.9872 118.81 70.984L125.108 66.6072L125.105 66.604Z" fill="#F7F7F7"/>
<path d="M27.9857 178.711C28.2944 178.842 28.5585 179.02 28.7813 179.249C29.004 179.478 29.1822 179.742 29.3191 180.045C29.4559 180.344 29.5228 180.669 29.5228 181.012V185.052C29.5228 185.396 29.4559 185.72 29.3191 186.029C29.1822 186.338 29.004 186.605 28.7813 186.834C28.5585 187.064 28.2944 187.242 27.9857 187.372C27.677 187.503 27.3524 187.566 27.0087 187.566H18.4386C18.1649 187.566 18.0312 187.43 18.0312 187.159V184.558C18.0312 184.444 18.0694 184.348 18.149 184.269C18.2286 184.189 18.324 184.151 18.4386 184.151H25.7421C25.8567 184.151 25.9521 184.116 26.0317 184.043C26.1113 183.973 26.1495 183.877 26.1495 183.763V181.98C26.1495 181.866 26.1113 181.77 26.0317 181.69C25.9521 181.611 25.8567 181.573 25.7421 181.573H20.5453C20.2016 181.573 19.877 181.509 19.5683 181.378C19.2596 181.248 18.9923 181.07 18.7632 180.841C18.5341 180.611 18.3559 180.347 18.2254 180.045C18.0949 179.742 18.0312 179.421 18.0312 179.077V175.038C18.0312 174.694 18.0949 174.369 18.2254 174.06C18.3527 173.752 18.5341 173.487 18.7632 173.265C18.9923 173.042 19.2596 172.864 19.5683 172.727C19.877 172.59 20.2016 172.523 20.5453 172.523H28.6412C28.9117 172.523 29.0486 172.66 29.0486 172.93V175.572C29.0486 175.687 29.0104 175.779 28.9308 175.853C28.8513 175.926 28.7558 175.961 28.6412 175.961H21.7896C21.6751 175.961 21.5828 175.999 21.5096 176.079C21.4364 176.158 21.4014 176.254 21.4014 176.368V178.109C21.4014 178.224 21.4364 178.319 21.5096 178.399C21.5796 178.479 21.6751 178.517 21.7896 178.517H27.0087C27.3524 178.517 27.677 178.58 27.9857 178.711Z" fill="#122F4C"/>
<path d="M44.1584 172.644C44.238 172.723 44.2762 172.819 44.2762 172.934V175.639C44.2762 175.754 44.238 175.846 44.1584 175.919C44.0789 175.993 43.9834 176.028 43.8688 176.028H36.6735C36.6003 176.028 36.5653 176.063 36.5653 176.136V178.479C36.5653 178.536 36.6003 178.565 36.6735 178.565H42.8155C42.93 178.565 43.0223 178.603 43.0955 178.682C43.1655 178.762 43.2037 178.857 43.2037 178.972V181.121C43.2037 181.235 43.1687 181.334 43.0955 181.41C43.0223 181.49 42.93 181.528 42.8155 181.528H36.6735C36.6003 181.528 36.5653 181.563 36.5653 181.636V183.957C36.5653 184.03 36.6003 184.065 36.6735 184.065H43.8688C43.9834 184.065 44.0789 184.103 44.1584 184.183C44.238 184.262 44.2762 184.358 44.2762 184.472V187.159C44.2762 187.274 44.238 187.369 44.1584 187.449C44.0789 187.528 43.9834 187.566 43.8688 187.566H33.1952C32.9215 187.566 32.7878 187.43 32.7878 187.159V172.937C32.7878 172.822 32.826 172.727 32.9056 172.647C32.9851 172.568 33.0806 172.529 33.1952 172.529H43.8688C43.9834 172.529 44.0789 172.568 44.1584 172.647V172.644Z" fill="#122F4C"/>
<path d="M57.7853 172.526C58.129 172.526 58.4536 172.593 58.7623 172.73C59.071 172.867 59.3351 173.045 59.5579 173.268C59.7806 173.491 59.9588 173.755 60.0957 174.064C60.2325 174.372 60.2994 174.697 60.2994 175.041V187.156C60.2994 187.27 60.2612 187.366 60.1816 187.446C60.1021 187.525 60.0066 187.563 59.892 187.563H56.907C56.7924 187.563 56.6969 187.525 56.6174 187.446C56.5378 187.366 56.4996 187.27 56.4996 187.156V183.311C56.4996 183.196 56.4646 183.101 56.3914 183.021C56.3182 182.941 56.2259 182.903 56.1114 182.903H51.8597C51.7452 182.903 51.6497 182.941 51.5701 183.021C51.4906 183.101 51.4524 183.196 51.4524 183.311V187.156C51.4524 187.43 51.3155 187.563 51.045 187.563H48.0823C47.8118 187.563 47.6749 187.426 47.6749 187.156V175.041C47.6749 174.697 47.7386 174.372 47.8691 174.064C47.9995 173.755 48.1777 173.491 48.4069 173.268C48.636 173.045 48.9033 172.867 49.212 172.73C49.5207 172.593 49.8453 172.526 50.189 172.526H57.7917H57.7853ZM56.4964 179.679V175.897H51.4492V179.679H56.4964Z" fill="#122F4C"/>
<path d="M73.5826 178.711C73.8913 178.842 74.1554 179.02 74.3782 179.249C74.601 179.478 74.7792 179.742 74.916 180.045C75.0529 180.344 75.1197 180.669 75.1197 181.012V185.052C75.1197 185.396 75.0529 185.72 74.916 186.029C74.7792 186.338 74.601 186.605 74.3782 186.834C74.1554 187.064 73.8913 187.242 73.5826 187.372C73.2739 187.503 72.9493 187.566 72.6056 187.566H64.0355C63.7618 187.566 63.6282 187.43 63.6282 187.159V184.558C63.6282 184.444 63.6664 184.348 63.7459 184.269C63.8255 184.189 63.921 184.151 64.0355 184.151H71.339C71.4536 184.151 71.5491 184.116 71.6286 184.043C71.7082 183.973 71.7464 183.877 71.7464 183.763V181.98C71.7464 181.866 71.7082 181.77 71.6286 181.69C71.5491 181.611 71.4536 181.573 71.339 181.573H66.1422C65.7985 181.573 65.4739 181.509 65.1653 181.378C64.8566 181.248 64.5892 181.07 64.3601 180.841C64.131 180.611 63.9528 180.347 63.8223 180.045C63.6918 179.742 63.6282 179.421 63.6282 179.077V175.038C63.6282 174.694 63.6918 174.369 63.8223 174.06C63.9496 173.752 64.131 173.487 64.3601 173.265C64.5892 173.042 64.8566 172.864 65.1653 172.727C65.4739 172.59 65.7985 172.523 66.1422 172.523H74.2382C74.5119 172.523 74.6455 172.66 74.6455 172.93V175.572C74.6455 175.687 74.6073 175.779 74.5278 175.853C74.4482 175.926 74.3527 175.961 74.2382 175.961H67.3865C67.272 175.961 67.1797 175.999 67.1065 176.079C67.0365 176.158 66.9983 176.254 66.9983 176.368V178.109C66.9983 178.224 67.0333 178.319 67.1065 178.399C67.1765 178.479 67.272 178.517 67.3865 178.517H72.6056C72.9493 178.517 73.2739 178.58 73.5826 178.711Z" fill="#122F4C"/>
<path d="M88.4538 172.526C88.7975 172.526 89.1221 172.593 89.4307 172.73C89.7394 172.867 90.0036 173.045 90.2263 173.268C90.4491 173.491 90.6273 173.755 90.7642 174.064C90.901 174.372 90.9678 174.697 90.9678 175.041V185.052C90.9678 185.396 90.901 185.72 90.7642 186.029C90.6273 186.338 90.4491 186.605 90.2263 186.834C90.0036 187.064 89.7394 187.242 89.4307 187.372C89.1221 187.503 88.7975 187.566 88.4538 187.566H80.8511C80.5074 187.566 80.1828 187.503 79.8741 187.372C79.5654 187.242 79.2981 187.064 79.069 186.834C78.8399 186.605 78.6616 186.338 78.5312 186.029C78.4039 185.72 78.337 185.396 78.337 185.052V175.041C78.337 174.697 78.4007 174.372 78.5312 174.064C78.6616 173.755 78.8399 173.491 79.069 173.268C79.2981 173.045 79.5654 172.867 79.8741 172.73C80.1828 172.593 80.5074 172.526 80.8511 172.526H88.4538ZM87.1649 176.177H82.1177V183.912H87.1649V176.177Z" fill="#122F4C"/>
<path d="M106.851 172.644C106.93 172.724 106.969 172.819 106.969 172.934V187.156C106.969 187.27 106.93 187.366 106.851 187.446C106.771 187.525 106.676 187.563 106.561 187.563H103.468C103.354 187.563 103.239 187.531 103.124 187.468C103.01 187.404 102.924 187.321 102.867 187.22L98.1185 178.453V187.153C98.1185 187.426 97.9817 187.56 97.7112 187.56H94.7484C94.4747 187.56 94.3411 187.423 94.3411 187.153V172.93C94.3411 172.66 94.4779 172.523 94.7484 172.523H97.7971C97.9117 172.523 98.0262 172.555 98.1408 172.618C98.2554 172.682 98.3413 172.765 98.3986 172.867L103.166 181.652V172.93C103.166 172.816 103.204 172.72 103.283 172.641C103.363 172.561 103.459 172.523 103.573 172.523H106.558C106.673 172.523 106.768 172.561 106.848 172.641L106.851 172.644Z" fill="#122F4C"/>
<path d="M25.7358 50.1344C25.8249 50.1726 25.9013 50.2267 25.9649 50.2904C26.0286 50.3541 26.0795 50.4305 26.1209 50.5196C26.1622 50.6087 26.1781 50.701 26.1781 50.7997V54.2852C26.1781 54.3171 26.1654 54.3457 26.1431 54.368C26.1209 54.3903 26.0922 54.403 26.0604 54.403H25.2012C25.1693 54.403 25.1407 54.3903 25.1216 54.368C25.1025 54.3457 25.0898 54.3171 25.0898 54.2852V51.1276H24.3992V54.2852C24.3992 54.3171 24.3897 54.3457 24.3674 54.368C24.3451 54.3903 24.3196 54.403 24.2878 54.403H23.5081C23.4763 54.403 23.4477 54.3903 23.4254 54.368C23.4031 54.3457 23.3904 54.3171 23.3904 54.2852V51.1276H22.6998V54.2852C22.6998 54.3648 22.6616 54.403 22.5821 54.403H21.7292C21.6496 54.403 21.6115 54.3648 21.6115 54.2852V50.1917C21.6115 50.1121 21.6496 50.0739 21.7292 50.0739H25.4557C25.5544 50.0739 25.6499 50.093 25.7358 50.1312V50.1344Z" fill="#242425"/>
<path d="M30.0575 50.0771C30.1561 50.0771 30.2516 50.0962 30.3407 50.1344C30.4298 50.1726 30.5062 50.2267 30.5698 50.2904C30.6335 50.3541 30.6844 50.4304 30.7258 50.5196C30.7672 50.6087 30.7831 50.701 30.7831 50.7997V54.2852C30.7831 54.3171 30.7703 54.3457 30.7481 54.368C30.7258 54.3903 30.6971 54.403 30.6653 54.403H29.8061C29.7743 54.403 29.7456 54.3903 29.7233 54.368C29.7011 54.3457 29.6883 54.3171 29.6883 54.2852V53.1775C29.6883 53.1457 29.6788 53.117 29.6565 53.0947C29.6342 53.0725 29.6088 53.0597 29.577 53.0597H28.3517C28.3199 53.0597 28.2913 53.0725 28.269 53.0947C28.2467 53.117 28.234 53.1457 28.234 53.1775V54.2852C28.234 54.3648 28.1958 54.403 28.1162 54.403H27.2634C27.187 54.403 27.1456 54.3648 27.1456 54.2852V50.7997C27.1456 50.701 27.1647 50.6055 27.1997 50.5196C27.2379 50.4304 27.2888 50.3541 27.3557 50.2904C27.4225 50.2267 27.4989 50.1758 27.588 50.1344C27.6771 50.0962 27.7694 50.0771 27.868 50.0771H30.0575ZM29.6883 52.1366V51.048H28.2372V52.1366H29.6883Z" fill="#242425"/>
<path d="M34.6719 50.1121C34.6941 50.1344 34.7069 50.1631 34.7069 50.1949V53.6804C34.7069 53.7791 34.6878 53.8746 34.6496 53.9606C34.6114 54.0497 34.5573 54.1261 34.4937 54.1929C34.43 54.2598 34.3536 54.3107 34.2645 54.3489C34.1754 54.3871 34.0831 54.403 33.9845 54.403H32.1228C32.0241 54.403 31.9287 54.3839 31.8427 54.3489C31.7536 54.3107 31.6773 54.2598 31.6104 54.1929C31.5436 54.1261 31.4927 54.0497 31.4545 53.9606C31.4163 53.8714 31.3972 53.7791 31.3972 53.6804V52.3563C31.3972 52.2767 31.4354 52.2385 31.515 52.2385H32.3678C32.4442 52.2385 32.4856 52.2767 32.4856 52.3563V53.2412C32.4856 53.273 32.4951 53.3016 32.5206 53.3207C32.5429 53.3398 32.5715 53.3526 32.6033 53.3526H33.5008C33.5326 53.3526 33.5612 53.343 33.5835 53.3207C33.6058 53.2985 33.6185 53.273 33.6185 53.2412V50.1917C33.6185 50.1599 33.6281 50.1312 33.6503 50.109C33.6726 50.0867 33.6981 50.0739 33.7299 50.0739H34.5891C34.6209 50.0739 34.6496 50.0867 34.6719 50.109V50.1121Z" fill="#242425"/>
<path d="M38.583 50.0771C38.6817 50.0771 38.7771 50.0962 38.8631 50.1344C38.9522 50.1726 39.0285 50.2267 39.0922 50.2904C39.1558 50.3541 39.2068 50.4304 39.2481 50.5196C39.2895 50.6087 39.3054 50.701 39.3054 50.7997V53.6804C39.3054 53.7791 39.2863 53.8746 39.2481 53.9605C39.2099 54.0465 39.159 54.1261 39.0922 54.1929C39.0285 54.2598 38.9522 54.3107 38.8631 54.3489C38.774 54.3871 38.6817 54.403 38.583 54.403H36.3935C36.2949 54.403 36.1994 54.3839 36.1135 54.3489C36.0244 54.3107 35.948 54.2598 35.8812 54.1929C35.8144 54.1261 35.7634 54.0497 35.7253 53.9605C35.6871 53.8714 35.668 53.7791 35.668 53.6804V50.7997C35.668 50.701 35.6871 50.6055 35.7253 50.5196C35.7634 50.4336 35.8144 50.3541 35.8812 50.2904C35.948 50.2267 36.0244 50.1758 36.1135 50.1344C36.2026 50.0962 36.2949 50.0771 36.3935 50.0771H38.583ZM38.2139 51.1276H36.7627V53.3526H38.2139V51.1276Z" fill="#242425"/>
<path d="M44.0471 54.3043C44.063 54.333 44.0662 54.3585 44.0535 54.3744C44.0407 54.3935 44.0185 54.403 43.9866 54.403H43.0033C42.9715 54.403 42.9365 54.3935 42.9046 54.3744C42.8728 54.3553 42.8473 54.333 42.8314 54.3043L42.1759 53.1298C42.1663 53.1138 42.1536 53.1043 42.1313 53.1043H41.3962C41.3771 53.1043 41.3644 53.1138 41.3644 53.1361V54.2852C41.3644 54.3648 41.3262 54.403 41.2466 54.403H40.3937C40.3142 54.403 40.276 54.3648 40.276 54.2852V50.1917C40.276 50.1121 40.3142 50.0739 40.3937 50.0739H43.1879C43.2865 50.0739 43.382 50.093 43.4679 50.1312C43.557 50.1694 43.6334 50.2236 43.697 50.2872C43.7607 50.3509 43.8116 50.4273 43.853 50.5164C43.8912 50.6055 43.9103 50.6978 43.9103 50.7965V52.4231C43.9103 52.5791 43.8625 52.7223 43.7702 52.8465C43.6779 52.9738 43.5602 53.0565 43.4138 53.1043L43.3947 53.1107C43.3661 53.1202 43.3597 53.1298 43.3756 53.1489L43.382 53.1616L44.0439 54.3043H44.0471ZM42.8155 51.083H41.3262V52.1334H42.8155V51.083Z" fill="#242425"/>
<path d="M49.8741 53.3526C49.9059 53.3526 49.9345 53.3653 49.9536 53.3876C49.9727 53.4099 49.9854 53.4385 49.9854 53.4704V54.2852C49.9854 54.3171 49.9759 54.3457 49.9536 54.368C49.9313 54.3903 49.9059 54.403 49.8741 54.403H47.204C47.1245 54.403 47.0863 54.3648 47.0863 54.2852V50.1917C47.0863 50.1121 47.1245 50.0739 47.204 50.0739H48.0569C48.1365 50.0739 48.1747 50.1121 48.1747 50.1917V53.2412C48.1747 53.273 48.1842 53.3016 48.2097 53.3207C48.2351 53.3398 48.2606 53.3526 48.2924 53.3526H49.8741Z" fill="#242425"/>
<path d="M53.8647 50.1121C53.887 50.1344 53.8997 50.163 53.8997 50.1948V50.9747C53.8997 51.0065 53.887 51.0352 53.8647 51.0543C53.8425 51.0734 53.8138 51.0861 53.782 51.0861H51.7103C51.6912 51.0861 51.6784 51.0957 51.6784 51.118V51.7928C51.6784 51.8087 51.688 51.8182 51.7103 51.8182H53.4797C53.5115 51.8182 53.5401 51.831 53.5592 51.8533C53.5783 51.8755 53.591 51.9042 53.591 51.936V52.5536C53.591 52.5854 53.5815 52.614 53.5592 52.6363C53.5369 52.6586 53.5115 52.6713 53.4797 52.6713H51.7103C51.6912 52.6713 51.6784 52.6809 51.6784 52.7032V53.3716C51.6784 53.3907 51.688 53.4035 51.7103 53.4035H53.782C53.8138 53.4035 53.8425 53.4162 53.8647 53.4385C53.887 53.4607 53.8997 53.4894 53.8997 53.5212V54.2947C53.8997 54.3266 53.887 54.3552 53.8647 54.3775C53.8425 54.3998 53.8138 54.4125 53.782 54.4125H50.711C50.6315 54.4125 50.5933 54.3743 50.5933 54.2947V50.2012C50.5933 50.1694 50.606 50.1407 50.6283 50.1184C50.6505 50.0962 50.6792 50.0834 50.711 50.0834H53.782C53.8138 50.0834 53.8425 50.0962 53.8647 50.1184V50.1121Z" fill="#242425"/>
<path d="M57.7854 50.0771C57.8841 50.0771 57.9795 50.0962 58.0686 50.1344C58.1577 50.1726 58.2341 50.2267 58.2978 50.2904C58.3614 50.3541 58.4123 50.4304 58.4537 50.5196C58.4951 50.6087 58.511 50.701 58.511 50.7997V54.2852C58.511 54.3171 58.4982 54.3457 58.476 54.368C58.4537 54.3903 58.4251 54.403 58.3932 54.403H57.534C57.5022 54.403 57.4735 54.3903 57.4513 54.368C57.429 54.3457 57.4162 54.3171 57.4162 54.2852V53.1775C57.4162 53.1457 57.4067 53.117 57.3844 53.0947C57.3621 53.0725 57.3367 53.0597 57.3049 53.0597H56.0797C56.0478 53.0597 56.0192 53.0725 55.9969 53.0947C55.9746 53.117 55.9619 53.1457 55.9619 53.1775V54.2852C55.9619 54.3648 55.9237 54.403 55.8442 54.403H54.9913C54.9149 54.403 54.8735 54.3648 54.8735 54.2852V50.7997C54.8735 50.701 54.8926 50.6055 54.9276 50.5196C54.9658 50.4304 55.0167 50.3541 55.0836 50.2904C55.1504 50.2267 55.2268 50.1758 55.3159 50.1344C55.405 50.0962 55.4973 50.0771 55.5959 50.0771H57.7854ZM57.4162 52.1366V51.048H55.9651V52.1366H57.4162Z" fill="#242425"/>
<path d="M63.0745 52.0761C63.0968 52.0984 63.1095 52.1271 63.1095 52.1589V53.6804C63.1095 53.7791 63.0904 53.8746 63.0522 53.9605C63.014 54.0465 62.9631 54.1261 62.8963 54.1929C62.8326 54.2598 62.7562 54.3107 62.6671 54.3489C62.578 54.3871 62.4857 54.403 62.3871 54.403H60.1976C60.099 54.403 60.0035 54.3839 59.9176 54.3489C59.8285 54.3107 59.7521 54.2598 59.6853 54.1929C59.6184 54.1261 59.5675 54.0497 59.5293 53.9605C59.4911 53.8714 59.472 53.7791 59.472 53.6804V50.7997C59.472 50.701 59.4911 50.6055 59.5293 50.5196C59.5675 50.4336 59.6184 50.3541 59.6853 50.2904C59.7521 50.2267 59.8285 50.1758 59.9176 50.1344C60.0067 50.0962 60.099 50.0771 60.1976 50.0771H62.7499C62.7817 50.0771 62.8103 50.0898 62.8326 50.1121C62.8549 50.1344 62.8676 50.1631 62.8676 50.1949V51.0098C62.8676 51.0416 62.8549 51.0703 62.8326 51.0925C62.8103 51.1148 62.7817 51.1276 62.7499 51.1276H60.6782C60.6463 51.1276 60.6177 51.1371 60.5954 51.1594C60.5731 51.1817 60.5604 51.2071 60.5604 51.239V53.2412C60.5604 53.273 60.5731 53.3016 60.5954 53.3207C60.6177 53.3398 60.6463 53.3526 60.6782 53.3526H61.9034C61.9352 53.3526 61.9638 53.343 61.9829 53.3207C62.002 53.2985 62.0148 53.273 62.0148 53.2412V52.1589C62.0148 52.1271 62.0243 52.0984 62.0498 52.0761C62.0752 52.0538 62.1007 52.0411 62.1325 52.0411H62.9917C63.0236 52.0411 63.0522 52.0538 63.0745 52.0761Z" fill="#242425"/>
<path d="M67.6348 50.1121C67.6571 50.1344 67.6698 50.1631 67.6698 50.1949V53.6804C67.6698 53.7791 67.6507 53.8746 67.6125 53.9605C67.5743 54.0465 67.5234 54.1261 67.4566 54.1929C67.3929 54.2598 67.3165 54.3107 67.2274 54.3489C67.1383 54.3871 67.046 54.403 66.9442 54.403H64.7547C64.6561 54.403 64.5606 54.3839 64.4747 54.3489C64.3856 54.3107 64.3092 54.2598 64.2424 54.1929C64.1756 54.1261 64.1246 54.0497 64.0864 53.9605C64.0483 53.8714 64.0323 53.7791 64.0323 53.6804V50.1949C64.0323 50.1153 64.0705 50.0771 64.1501 50.0771H65.003C65.0793 50.0771 65.1207 50.1153 65.1207 50.1949V53.2443C65.1207 53.2762 65.1334 53.3048 65.1557 53.3239C65.178 53.343 65.2066 53.3557 65.2385 53.3557H66.4637C66.4955 53.3557 66.5241 53.3462 66.5432 53.3239C66.5623 53.3016 66.5751 53.2762 66.5751 53.2443V50.1949C66.5751 50.1631 66.5878 50.1344 66.6101 50.1121C66.6323 50.0898 66.661 50.0771 66.6928 50.0771H67.552C67.5839 50.0771 67.6125 50.0898 67.6348 50.1121Z" fill="#242425"/>
<path d="M71.9182 50.1121C71.9405 50.1344 71.9532 50.163 71.9532 50.1948V50.9747C71.9532 51.0065 71.9405 51.0352 71.9182 51.0543C71.8959 51.0734 71.8673 51.0861 71.8355 51.0861H69.7637C69.7446 51.0861 69.7319 51.0957 69.7319 51.118V51.7928C69.7319 51.8087 69.7415 51.8182 69.7637 51.8182H71.5331C71.565 51.8182 71.5936 51.831 71.6127 51.8533C71.6318 51.8755 71.6445 51.9042 71.6445 51.936V52.5536C71.6445 52.5854 71.635 52.614 71.6127 52.6363C71.5904 52.6586 71.565 52.6713 71.5331 52.6713H69.7637C69.7446 52.6713 69.7319 52.6809 69.7319 52.7032V53.3716C69.7319 53.3907 69.7415 53.4035 69.7637 53.4035H71.8355C71.8673 53.4035 71.8959 53.4162 71.9182 53.4385C71.9405 53.4607 71.9532 53.4894 71.9532 53.5212V54.2947C71.9532 54.3266 71.9405 54.3552 71.9182 54.3775C71.8959 54.3998 71.8673 54.4125 71.8355 54.4125H68.7645C68.6849 54.4125 68.6467 54.3743 68.6467 54.2947V50.2012C68.6467 50.1694 68.6595 50.1407 68.6817 50.1184C68.704 50.0962 68.7327 50.0834 68.7645 50.0834H71.8355C71.8673 50.0834 71.8959 50.0962 71.9182 50.1184V50.1121Z" fill="#242425"/>
<path d="M78.5535 50.0771C78.5853 50.0771 78.614 50.0898 78.6362 50.1121C78.6585 50.1344 78.6713 50.1631 78.6713 50.1949V54.2884C78.6713 54.3202 78.6617 54.3489 78.6362 54.3712C78.6108 54.3935 78.5853 54.4062 78.5535 54.4062H77.6943C77.6624 54.4062 77.6338 54.3935 77.6115 54.3712C77.5893 54.3489 77.5765 54.3202 77.5765 54.2884V52.8592C77.5765 52.8273 77.567 52.7987 77.5447 52.7796C77.5224 52.7605 77.497 52.7478 77.4651 52.7478H76.2399C76.2081 52.7478 76.1795 52.7573 76.1572 52.7796C76.1349 52.8019 76.1222 52.8273 76.1222 52.8592V54.2884C76.1222 54.368 76.084 54.4062 76.0044 54.4062H75.1516C75.072 54.4062 75.0338 54.368 75.0338 54.2884V50.1949C75.0338 50.1153 75.072 50.0771 75.1516 50.0771H76.0044C76.084 50.0771 76.1222 50.1153 76.1222 50.1949V51.5796C76.1222 51.6591 76.1604 51.6973 76.2399 51.6973H77.4651C77.497 51.6973 77.5256 51.6846 77.5447 51.6623C77.5638 51.64 77.5765 51.6114 77.5765 51.5796V50.1949C77.5765 50.1631 77.5893 50.1344 77.6115 50.1121C77.6338 50.0898 77.6624 50.0771 77.6943 50.0771H78.5535Z" fill="#242425"/>
<path d="M82.5601 50.0771C82.6587 50.0771 82.7542 50.0962 82.8433 50.1344C82.9324 50.1726 83.0088 50.2267 83.0724 50.2904C83.1361 50.3541 83.187 50.4304 83.2284 50.5196C83.2697 50.6087 83.2856 50.701 83.2856 50.7997V54.2852C83.2856 54.3171 83.2729 54.3457 83.2506 54.368C83.2284 54.3903 83.1997 54.403 83.1679 54.403H82.3087C82.2768 54.403 82.2482 54.3903 82.2259 54.368C82.2036 54.3457 82.1909 54.3171 82.1909 54.2852V53.1775C82.1909 53.1457 82.1814 53.117 82.1591 53.0947C82.1368 53.0725 82.1113 53.0597 82.0795 53.0597H80.8543C80.8225 53.0597 80.7938 53.0725 80.7716 53.0947C80.7493 53.117 80.7366 53.1457 80.7366 53.1775V54.2852C80.7366 54.3648 80.6984 54.403 80.6188 54.403H79.7659C79.6896 54.403 79.6482 54.3648 79.6482 54.2852V50.7997C79.6482 50.701 79.6673 50.6055 79.7023 50.5196C79.7405 50.4304 79.7914 50.3541 79.8582 50.2904C79.9251 50.2267 80.0014 50.1758 80.0905 50.1344C80.1796 50.0962 80.2719 50.0771 80.3706 50.0771H82.5601ZM82.1909 52.1366V51.048H80.7397V52.1366H82.1909Z" fill="#242425"/>
<path d="M85.3637 51.1594C85.3415 51.1785 85.3287 51.2071 85.3287 51.239V53.2412C85.3287 53.273 85.3383 53.3016 85.3637 53.3207C85.3892 53.3398 85.4147 53.3526 85.4465 53.3526H87.4323C87.4641 53.3526 87.4927 53.3653 87.515 53.3876C87.5373 53.4099 87.55 53.4385 87.55 53.4703V54.2852C87.55 54.3171 87.5405 54.3457 87.515 54.368C87.4896 54.3903 87.4641 54.403 87.4323 54.403H84.9659C84.8673 54.403 84.7718 54.3839 84.6859 54.3489C84.5968 54.3107 84.5204 54.2598 84.4536 54.1929C84.3867 54.1261 84.3358 54.0497 84.2976 53.9605C84.2595 53.8714 84.2404 53.7791 84.2404 53.6804V50.7997C84.2404 50.701 84.2595 50.6055 84.2976 50.5196C84.3358 50.4304 84.3867 50.3541 84.4536 50.2904C84.5204 50.2267 84.5968 50.1758 84.6859 50.1344C84.775 50.0962 84.8673 50.0771 84.9659 50.0771H87.4323C87.4641 50.0771 87.4927 50.0898 87.515 50.1121C87.5373 50.1344 87.55 50.1631 87.55 50.1949V51.0098C87.55 51.0416 87.5405 51.0703 87.515 51.0925C87.4896 51.1148 87.4641 51.1276 87.4323 51.1276H85.4465C85.4147 51.1276 85.386 51.1371 85.3637 51.1594Z" fill="#242425"/>
<path d="M90.9901 51.9011C90.9901 51.9011 90.9742 51.9265 90.9837 51.9456L92.4317 54.3075C92.4476 54.3362 92.4508 54.3616 92.4381 54.3775C92.4253 54.3966 92.4031 54.4062 92.3713 54.4062H91.3465C91.3147 54.4062 91.2797 54.3966 91.2479 54.3775C91.2161 54.3584 91.1906 54.3362 91.1747 54.3075L90.2423 52.6204C90.2295 52.6013 90.22 52.5982 90.2104 52.6141L89.6981 53.1775C89.679 53.1998 89.6599 53.2284 89.6471 53.2666C89.6312 53.3048 89.6249 53.343 89.6249 53.3748V54.2884C89.6249 54.368 89.5867 54.4062 89.5071 54.4062H88.6542C88.5747 54.4062 88.5365 54.368 88.5365 54.2884V50.1949C88.5365 50.1153 88.5747 50.0771 88.6542 50.0771H89.5071C89.5867 50.0771 89.6249 50.1153 89.6249 50.1949V52.0316L91.2192 50.1631C91.2383 50.1376 91.267 50.1185 91.3052 50.1026C91.3433 50.0867 91.3783 50.0771 91.4102 50.0771H92.4349C92.4667 50.0771 92.4858 50.0867 92.4922 50.1026C92.4985 50.1185 92.4922 50.1408 92.4699 50.1631L90.9933 51.9011H90.9901Z" fill="#242425"/>
<path d="M94.322 54.2884C94.322 54.368 94.2838 54.4062 94.2043 54.4062H93.3514C93.2718 54.4062 93.2336 54.368 93.2336 54.2884V50.1949C93.2336 50.1153 93.2718 50.0771 93.3514 50.0771H94.2043C94.2838 50.0771 94.322 50.1153 94.322 50.1949V54.2884Z" fill="#242425"/>
<path d="M98.4846 50.1344C98.5738 50.1726 98.6501 50.2267 98.7138 50.2904C98.7774 50.3541 98.8283 50.4305 98.8697 50.5196C98.9079 50.6087 98.927 50.701 98.927 50.7997V54.2852C98.927 54.3171 98.9174 54.3457 98.892 54.368C98.8665 54.3903 98.8411 54.403 98.8092 54.403H97.95C97.9182 54.403 97.8895 54.3903 97.8705 54.368C97.8514 54.3457 97.8386 54.3171 97.8386 54.2852V51.2358C97.8386 51.204 97.8259 51.1753 97.8036 51.1562C97.7813 51.1371 97.7527 51.1244 97.7209 51.1244H96.4957C96.4638 51.1244 96.4352 51.1339 96.4129 51.1562C96.3906 51.1785 96.3779 51.204 96.3779 51.2358V54.2852C96.3779 54.3648 96.3397 54.403 96.2602 54.403H95.4073C95.3277 54.403 95.2896 54.3648 95.2896 54.2852V50.1917C95.2896 50.1121 95.3277 50.0739 95.4073 50.0739H98.2014C98.3001 50.0739 98.3955 50.093 98.4815 50.1312L98.4846 50.1344Z" fill="#242425"/>
<path d="M103.49 52.0761C103.513 52.0984 103.525 52.1271 103.525 52.1589V53.6804C103.525 53.7791 103.506 53.8746 103.468 53.9605C103.43 54.0465 103.379 54.1261 103.312 54.1929C103.249 54.2598 103.172 54.3107 103.083 54.3489C102.994 54.3871 102.902 54.403 102.803 54.403H100.614C100.515 54.403 100.42 54.3839 100.334 54.3489C100.244 54.3107 100.168 54.2598 100.101 54.1929C100.034 54.1261 99.9835 54.0497 99.9453 53.9605C99.9072 53.8714 99.8881 53.7791 99.8881 53.6804V50.7997C99.8881 50.701 99.9072 50.6055 99.9453 50.5196C99.9835 50.4336 100.034 50.3541 100.101 50.2904C100.168 50.2267 100.244 50.1758 100.334 50.1344C100.423 50.0962 100.515 50.0771 100.614 50.0771H103.166C103.198 50.0771 103.226 50.0898 103.249 50.1121C103.271 50.1344 103.284 50.1631 103.284 50.1949V51.0098C103.284 51.0416 103.271 51.0703 103.249 51.0925C103.226 51.1148 103.198 51.1276 103.166 51.1276H101.094C101.062 51.1276 101.034 51.1371 101.011 51.1594C100.989 51.1817 100.976 51.2071 100.976 51.239V53.2412C100.976 53.273 100.989 53.3016 101.011 53.3207C101.034 53.3398 101.062 53.3526 101.094 53.3526H102.319C102.351 53.3526 102.38 53.343 102.399 53.3207C102.418 53.2985 102.431 53.273 102.431 53.2412V52.1589C102.431 52.1271 102.44 52.0984 102.466 52.0761C102.491 52.0538 102.517 52.0411 102.549 52.0411H103.408C103.44 52.0411 103.468 52.0538 103.49 52.0761Z" fill="#242425"/>
<path d="M47.6846 20.2828C48.2447 20.5311 48.7252 20.8558 49.1294 21.2569C49.5335 21.6611 49.8581 22.1418 50.1063 22.6988C50.3546 23.2591 50.4787 23.8479 50.4787 24.4718V47.1772C50.4787 47.3841 50.4055 47.5623 50.2623 47.7024C50.1191 47.8424 49.944 47.9157 49.734 47.9157H44.3049C44.0949 47.9157 43.9262 47.8456 43.7957 47.7024C43.6652 47.5591 43.6016 47.3841 43.6016 47.1772V26.5409H39.2258V47.1803C39.2258 47.3873 39.159 47.5655 39.0317 47.7056C38.9012 47.8488 38.7326 47.9188 38.5225 47.9188H33.5994C33.3894 47.9188 33.2144 47.8488 33.0712 47.7056C32.9279 47.5623 32.8548 47.3873 32.8548 47.1803V26.5409H28.479V47.1803C28.479 47.6737 28.2308 47.922 27.7375 47.922H22.3466C21.8501 47.922 21.6051 47.6737 21.6051 47.1803V20.6552C21.6051 20.1619 21.8533 19.9136 22.3466 19.9136H45.9024C46.5262 19.9136 47.1181 20.0377 47.6782 20.2828H47.6846Z" fill="#E73427"/>
<path d="M47.6845 20.283C48.2446 20.5312 48.7252 20.8559 49.1293 21.257C49.5335 21.6612 49.8581 22.1419 50.1063 22.699C50.3545 23.2592 50.4786 23.8481 50.4786 24.472V26.4964L43.6047 26.5378H28.4885L21.6146 26.4964V20.6522C21.6146 20.1588 21.8628 19.9105 22.3561 19.9105H45.912C46.5357 19.9105 47.1276 20.0347 47.6877 20.2798L47.6845 20.283Z" fill="#E73427"/>
<path d="M74.1523 41.123C74.3719 41.123 74.5533 41.1962 74.6901 41.3426C74.827 41.489 74.897 41.6705 74.897 41.8837V47.1646C74.897 47.3778 74.827 47.5593 74.6901 47.7057C74.5533 47.8521 74.3719 47.9253 74.1523 47.9253H55.5546C55.0295 47.9253 54.7686 47.6707 54.7686 47.1646V20.6745C54.7686 20.1683 55.0295 19.9137 55.5546 19.9137H61.2638C61.7888 19.9137 62.0498 20.1683 62.0498 20.6745V40.4036C62.0498 40.6168 62.1262 40.7919 62.2789 40.9224C62.4317 41.0561 62.6163 41.123 62.839 41.123H74.1523Z" fill="#1D539F"/>
<path d="M61.9924 47.9253H55.5545C55.0326 47.9253 54.7716 47.6707 54.7716 47.1646V20.6745C54.7716 20.1683 55.0326 19.9137 55.5545 19.9137H61.2509C61.7728 19.9137 62.0338 20.1683 62.0338 20.6745V40.4036C62.0338 40.6168 61.9924 47.9253 61.9924 47.9253Z" fill="#1D539F"/>
<path d="M102.736 19.9137C102.959 19.9137 103.147 19.9869 103.3 20.1333C103.452 20.2798 103.529 20.4612 103.529 20.6745V47.241C103.529 47.4542 103.452 47.6357 103.3 47.7821C103.147 47.9285 102.959 48.0017 102.736 48.0017H96.9507C96.728 48.0017 96.5402 47.9285 96.3875 47.7821C96.2347 47.6357 96.1583 47.4542 96.1583 47.241V37.9716C96.1583 37.7584 96.0883 37.5833 95.9515 37.4496C95.8114 37.3159 95.6332 37.2491 95.4105 37.2491H87.2954C87.0727 37.2491 86.8849 37.3159 86.7322 37.4496C86.5794 37.5833 86.503 37.7584 86.503 37.9716V47.241C86.503 47.7503 86.2389 48.0049 85.7138 48.0049H79.9696C79.4414 48.0049 79.1804 47.7503 79.1804 47.241V20.6776C79.1804 20.1683 79.4446 19.9137 79.9696 19.9137H85.7138C86.2389 19.9137 86.503 20.1683 86.503 20.6776V29.6668C86.503 30.1761 86.7672 30.4308 87.2923 30.4308H95.4073C95.63 30.4308 95.8083 30.3576 95.9483 30.2112C96.0883 30.0647 96.1551 29.8833 96.1551 29.67V20.6808C96.1551 20.4676 96.2315 20.2861 96.3843 20.1397C96.537 19.9933 96.7248 19.9201 96.9476 19.9201H102.733L102.736 19.9137Z" fill="#F8B92A"/>
<path d="M86.5061 37.9716V47.241C86.5061 47.7503 86.242 48.0049 85.7169 48.0049H79.9727C79.4444 48.0049 79.1835 47.7503 79.1835 47.241V20.6776C79.1835 20.1683 79.4476 19.9137 79.9727 19.9137H85.7169C86.242 19.9137 86.5061 20.1683 86.5061 20.6776V37.9748V37.9716Z" fill="#F8B92A"/>
<path d="M102.736 19.9137C102.959 19.9137 103.147 19.9869 103.3 20.1333C103.452 20.2798 103.529 20.4612 103.529 20.6745V47.241C103.529 47.4542 103.452 47.6357 103.3 47.7821C103.147 47.9285 102.959 48.0017 102.736 48.0017H96.9507C96.728 48.0017 96.5402 47.9285 96.3875 47.7821C96.2347 47.6357 96.1583 47.4542 96.1583 47.241V20.6776C96.1583 20.4644 96.2347 20.2829 96.3875 20.1365C96.5402 19.9901 96.728 19.9169 96.9507 19.9169H102.736V19.9137Z" fill="#F8B92A"/>
<path d="M24.0077 155.426V158.657C24.0809 159.02 24.2973 159.202 24.6601 159.202H36.8485C37.0427 159.202 37.1986 159.268 37.3195 159.402C37.4405 159.536 37.5009 159.698 37.5009 159.892V164.282C37.5009 164.476 37.4405 164.638 37.3195 164.772C37.1986 164.906 37.0427 164.973 36.8485 164.973H19.0019C18.5436 164.973 18.3113 164.743 18.3113 164.282V153.905C18.3113 153.325 18.4195 152.778 18.6391 152.272C18.8555 151.763 19.1578 151.317 19.546 150.929C19.9311 150.543 20.3862 150.238 20.9081 150.021C21.4268 149.805 21.9774 149.693 22.5597 149.693H31.1585C31.3526 149.693 31.5149 149.627 31.6486 149.493C31.7822 149.359 31.849 149.197 31.849 149.003V146.065C31.849 145.871 31.7822 145.708 31.6486 145.575C31.5149 145.441 31.3526 145.374 31.1585 145.374H19.7624C19.5683 145.374 19.4124 145.314 19.2914 145.193C19.1705 145.072 19.1101 144.916 19.1101 144.721V140.259C19.1101 140.065 19.1705 139.902 19.2914 139.768C19.4124 139.635 19.5683 139.568 19.7624 139.568H33.2938C33.873 139.568 34.4172 139.683 34.9264 139.912C35.4356 140.141 35.8811 140.443 36.2693 140.819C36.6544 141.195 36.9599 141.64 37.1763 142.162C37.3927 142.681 37.5041 143.232 37.5041 143.814V144.83C37.5264 144.855 37.5391 144.89 37.5391 144.938V154.191C37.5391 154.385 37.4723 154.541 37.3386 154.662C37.205 154.783 37.0427 154.844 36.8485 154.844H24.6601C24.3196 154.844 24.1032 155.038 24.0077 155.423V155.426Z" fill="#122F4C"/>
<path d="M56.4773 139.571C57.0565 139.571 57.6071 139.686 58.129 139.915C58.6477 140.144 59.0964 140.446 59.4719 140.822C59.8474 141.198 60.1498 141.643 60.3789 142.165C60.608 142.684 60.7226 143.235 60.7226 143.817V160.726C60.7226 161.306 60.608 161.856 60.3789 162.378C60.1498 162.897 59.8474 163.352 59.4719 163.738C59.0964 164.126 58.6509 164.428 58.129 164.645C57.6071 164.861 57.0597 164.973 56.4773 164.973H45.5586C44.9794 164.973 44.4289 164.864 43.907 164.645C43.3851 164.428 42.9332 164.126 42.5449 163.738C42.1567 163.352 41.8544 162.897 41.638 162.378C41.4216 161.859 41.3102 161.309 41.3102 160.726V143.817C41.3102 143.238 41.4184 142.687 41.638 142.165C41.8544 141.647 42.1567 141.198 42.5449 140.822C42.93 140.446 43.3851 140.144 43.907 139.915C44.4257 139.686 44.9763 139.571 45.5586 139.571H56.4773ZM54.5552 145.74H47.4808V158.804H54.5552V145.74Z" fill="#122F4C"/>
<path d="M70.117 155.426V158.657C70.1902 159.02 70.4066 159.202 70.7694 159.202H82.9578C83.1519 159.202 83.3079 159.268 83.4288 159.402C83.5497 159.536 83.6102 159.698 83.6102 159.892V164.282C83.6102 164.476 83.5497 164.638 83.4288 164.772C83.3079 164.906 83.1519 164.973 82.9578 164.973H65.1079C64.6497 164.973 64.4174 164.743 64.4174 164.282V153.905C64.4174 153.325 64.5256 152.778 64.7451 152.272C64.9647 151.766 65.2639 151.317 65.6521 150.929C66.0404 150.54 66.4923 150.238 67.0142 150.021C67.5329 149.805 68.0834 149.693 68.6658 149.693H77.2646C77.4587 149.693 77.621 149.627 77.7546 149.493C77.8883 149.359 77.9551 149.197 77.9551 149.003V146.065C77.9551 145.871 77.8883 145.708 77.7546 145.575C77.621 145.441 77.4587 145.374 77.2646 145.374H65.8717C65.6776 145.374 65.5216 145.314 65.4007 145.193C65.2798 145.072 65.2193 144.916 65.2193 144.721V140.259C65.2193 140.065 65.2798 139.902 65.4007 139.768C65.5216 139.635 65.6776 139.568 65.8717 139.568H79.4031C79.9823 139.568 80.5265 139.683 81.0357 139.912C81.5448 140.141 81.9904 140.443 82.3786 140.819C82.7637 141.195 83.0692 141.64 83.2856 142.162C83.502 142.681 83.6134 143.232 83.6134 143.814V144.83C83.6388 144.855 83.6516 144.89 83.6516 144.938V154.191C83.6516 154.385 83.5847 154.541 83.4511 154.662C83.3174 154.783 83.1551 154.844 82.961 154.844H70.7725C70.432 154.844 70.2156 155.038 70.1202 155.423L70.117 155.426Z" fill="#122F4C"/>
<path d="M105.416 151.218C105.295 151.339 105.174 151.489 105.053 151.67C104.932 151.852 104.872 152.039 104.872 152.234C104.897 152.428 104.967 152.622 105.088 152.813C105.209 153.007 105.33 153.176 105.451 153.322L105.779 153.685L106.068 154.083L106.504 154.592C106.625 154.739 106.733 154.923 106.832 155.156C106.927 155.385 106.978 155.598 106.978 155.792V160.726C106.978 161.306 106.864 161.856 106.635 162.378C106.405 162.897 106.103 163.352 105.728 163.738C105.352 164.126 104.907 164.428 104.385 164.645C103.863 164.861 103.315 164.973 102.733 164.973H88.2215C87.7632 164.973 87.5309 164.743 87.5309 164.282V160.074C87.5309 159.88 87.5977 159.724 87.7314 159.603C87.865 159.482 88.0273 159.421 88.2215 159.421H100.267C100.461 159.421 100.617 159.354 100.738 159.221C100.859 159.087 100.919 158.925 100.919 158.73V155.611C100.919 155.417 100.859 155.254 100.738 155.121C100.617 154.987 100.458 154.92 100.267 154.92H90.5446C90.3505 154.92 90.1945 154.86 90.0736 154.739C89.9527 154.618 89.8922 154.462 89.8922 154.268V150.276C89.8922 150.082 89.9527 149.926 90.0736 149.805C90.1945 149.684 90.3505 149.623 90.5446 149.623H100.267C100.461 149.623 100.617 149.557 100.738 149.423C100.859 149.289 100.919 149.127 100.919 148.933V145.775C100.919 145.581 100.859 145.419 100.738 145.285C100.617 145.151 100.458 145.084 100.267 145.084H88.2215C88.0273 145.084 87.865 145.024 87.7314 144.903C87.5977 144.782 87.5309 144.626 87.5309 144.432V140.259C87.5309 139.8 87.76 139.568 88.2215 139.568H102.733C103.312 139.568 103.863 139.683 104.385 139.912C104.903 140.141 105.352 140.443 105.728 140.819C106.103 141.195 106.405 141.64 106.635 142.162C106.864 142.681 106.978 143.232 106.978 143.814V148.532C106.978 148.726 106.937 148.936 106.851 149.168C106.765 149.397 106.663 149.585 106.542 149.732L105.782 150.747L105.419 151.218H105.416Z" fill="#122F4C"/>
<path d="M24.0077 155.426V158.657C24.0809 159.02 24.2973 159.202 24.6601 159.202H36.8485C37.0427 159.202 37.1986 159.268 37.3195 159.402C37.4405 159.536 37.5009 159.698 37.5009 159.892V164.282C37.5009 164.476 37.4405 164.638 37.3195 164.772C37.1986 164.906 37.0427 164.973 36.8485 164.973H19.0019C18.5436 164.973 18.3113 164.743 18.3113 164.282V153.905C18.3113 153.325 18.4195 152.778 18.6391 152.272C18.8555 151.763 19.1578 151.317 19.546 150.929C19.9311 150.543 20.3862 150.238 20.9081 150.021C21.4268 149.805 21.9774 149.693 22.5597 149.693H31.1585C31.3526 149.693 31.5149 149.627 31.6486 149.493C31.7822 149.359 31.849 149.197 31.849 149.003V146.065C31.849 145.871 31.7822 145.708 31.6486 145.575C31.5149 145.441 31.3526 145.374 31.1585 145.374H19.7624C19.5683 145.374 19.4124 145.314 19.2914 145.193C19.1705 145.072 19.1101 144.916 19.1101 144.721V140.259C19.1101 140.065 19.1705 139.902 19.2914 139.768C19.4124 139.635 19.5683 139.568 19.7624 139.568H33.2938C33.873 139.568 34.4172 139.683 34.9264 139.912C35.4356 140.141 35.8811 140.443 36.2693 140.819C36.6544 141.195 36.9599 141.64 37.1763 142.162C37.3927 142.681 37.5041 143.232 37.5041 143.814V144.83C37.5264 144.855 37.5391 144.89 37.5391 144.938V154.191C37.5391 154.385 37.4723 154.541 37.3386 154.662C37.205 154.783 37.0427 154.844 36.8485 154.844H24.6601C24.3196 154.844 24.1032 155.038 24.0077 155.423V155.426Z" fill="#122F4C"/>
<path d="M56.4773 139.571C57.0565 139.571 57.6071 139.686 58.129 139.915C58.6477 140.144 59.0964 140.446 59.4719 140.822C59.8474 141.198 60.1498 141.643 60.3789 142.165C60.608 142.684 60.7226 143.235 60.7226 143.817V160.726C60.7226 161.306 60.608 161.856 60.3789 162.378C60.1498 162.897 59.8474 163.352 59.4719 163.738C59.0964 164.126 58.6509 164.428 58.129 164.645C57.6071 164.861 57.0597 164.973 56.4773 164.973H45.5586C44.9794 164.973 44.4289 164.864 43.907 164.645C43.3851 164.428 42.9332 164.126 42.5449 163.738C42.1567 163.352 41.8544 162.897 41.638 162.378C41.4216 161.859 41.3102 161.309 41.3102 160.726V143.817C41.3102 143.238 41.4184 142.687 41.638 142.165C41.8544 141.647 42.1567 141.198 42.5449 140.822C42.93 140.446 43.3851 140.144 43.907 139.915C44.4257 139.686 44.9763 139.571 45.5586 139.571H56.4773ZM54.5552 145.74H47.4808V158.804H54.5552V145.74Z" fill="#122F4C"/>
<path d="M70.117 155.426V158.657C70.1902 159.02 70.4066 159.202 70.7694 159.202H82.9578C83.1519 159.202 83.3079 159.268 83.4288 159.402C83.5497 159.536 83.6102 159.698 83.6102 159.892V164.282C83.6102 164.476 83.5497 164.638 83.4288 164.772C83.3079 164.906 83.1519 164.973 82.9578 164.973H65.1079C64.6497 164.973 64.4174 164.743 64.4174 164.282V153.905C64.4174 153.325 64.5256 152.778 64.7451 152.272C64.9647 151.766 65.2639 151.317 65.6521 150.929C66.0404 150.54 66.4923 150.238 67.0142 150.021C67.5329 149.805 68.0834 149.693 68.6658 149.693H77.2646C77.4587 149.693 77.621 149.627 77.7546 149.493C77.8883 149.359 77.9551 149.197 77.9551 149.003V146.065C77.9551 145.871 77.8883 145.708 77.7546 145.575C77.621 145.441 77.4587 145.374 77.2646 145.374H65.8717C65.6776 145.374 65.5216 145.314 65.4007 145.193C65.2798 145.072 65.2193 144.916 65.2193 144.721V140.259C65.2193 140.065 65.2798 139.902 65.4007 139.768C65.5216 139.635 65.6776 139.568 65.8717 139.568H79.4031C79.9823 139.568 80.5265 139.683 81.0357 139.912C81.5448 140.141 81.9904 140.443 82.3786 140.819C82.7637 141.195 83.0692 141.64 83.2856 142.162C83.502 142.681 83.6134 143.232 83.6134 143.814V144.83C83.6388 144.855 83.6516 144.89 83.6516 144.938V154.191C83.6516 154.385 83.5847 154.541 83.4511 154.662C83.3174 154.783 83.1551 154.844 82.961 154.844H70.7725C70.432 154.844 70.2156 155.038 70.1202 155.423L70.117 155.426Z" fill="#122F4C"/>
<path d="M105.416 151.218C105.295 151.339 105.174 151.489 105.053 151.67C104.932 151.852 104.872 152.039 104.872 152.234C104.897 152.428 104.967 152.622 105.088 152.813C105.209 153.007 105.33 153.176 105.451 153.322L105.779 153.685L106.068 154.083L106.504 154.592C106.625 154.739 106.733 154.923 106.832 155.156C106.927 155.385 106.978 155.598 106.978 155.792V160.726C106.978 161.306 106.864 161.856 106.635 162.378C106.405 162.897 106.103 163.352 105.728 163.738C105.352 164.126 104.907 164.428 104.385 164.645C103.863 164.861 103.315 164.973 102.733 164.973H88.2215C87.7632 164.973 87.5309 164.743 87.5309 164.282V160.074C87.5309 159.88 87.5977 159.724 87.7314 159.603C87.865 159.482 88.0273 159.421 88.2215 159.421H100.267C100.461 159.421 100.617 159.354 100.738 159.221C100.859 159.087 100.919 158.925 100.919 158.73V155.611C100.919 155.417 100.859 155.254 100.738 155.121C100.617 154.987 100.458 154.92 100.267 154.92H90.5446C90.3505 154.92 90.1945 154.86 90.0736 154.739C89.9527 154.618 89.8922 154.462 89.8922 154.268V150.276C89.8922 150.082 89.9527 149.926 90.0736 149.805C90.1945 149.684 90.3505 149.623 90.5446 149.623H100.267C100.461 149.623 100.617 149.557 100.738 149.423C100.859 149.289 100.919 149.127 100.919 148.933V145.775C100.919 145.581 100.859 145.419 100.738 145.285C100.617 145.151 100.458 145.084 100.267 145.084H88.2215C88.0273 145.084 87.865 145.024 87.7314 144.903C87.5977 144.782 87.5309 144.626 87.5309 144.432V140.259C87.5309 139.8 87.76 139.568 88.2215 139.568H102.733C103.312 139.568 103.863 139.683 104.385 139.912C104.903 140.141 105.352 140.443 105.728 140.819C106.103 141.195 106.405 141.64 106.635 142.162C106.864 142.681 106.978 143.232 106.978 143.814V148.532C106.978 148.726 106.937 148.936 106.851 149.168C106.765 149.397 106.663 149.585 106.542 149.732L105.782 150.747L105.419 151.218H105.416Z" fill="#122F4C"/>
</g>
<defs>
<clipPath id="clip0_486_30">
<rect width="125" height="219" fill="white"/>
</clipPath>
</defs>
</svg>
