<svg width="106" height="40" viewBox="0 0 106 40" fill="none" xmlns="http://www.w3.org/2000/svg">
<path d="M35.0764 2.69036L35.0694 2.6874L35.0622 2.68455C34.233 2.35231 33.3949 2.18972 32.4669 2.20247L3.55565 2.5997C3.10533 2.60589 2.57357 2.71983 2.16893 3.13575C1.76428 3.55167 1.66499 4.08636 1.67118 4.53668L2.11806 37.0619C2.12425 37.5122 2.2382 38.044 2.65411 38.4486C3.07003 38.8533 3.60472 38.9526 4.05504 38.9464L10.6659 38.8555C11.1162 38.8493 11.6479 38.7354 12.0526 38.3195C12.4572 37.9036 12.5565 37.3689 12.5503 36.9186L12.2161 12.5917L15.5931 12.5453L15.9273 36.8722C15.9346 37.4013 16.134 37.8588 16.5032 38.2179C16.8724 38.5771 17.3352 38.7639 17.8643 38.7566L23.9169 38.6735C24.3782 38.6671 24.9219 38.4888 25.2934 38.0302C25.5714 37.6872 25.7497 37.2567 25.7426 36.7373L25.4083 12.4104L28.7853 12.364L29.1196 36.6909C29.1267 37.2103 29.3168 37.6358 29.6041 37.971C29.9771 38.4064 30.4871 38.5832 30.9978 38.5762L37.6674 38.4845C38.1965 38.4773 38.654 38.2778 39.0131 37.9087C39.3723 37.5395 39.5591 37.0767 39.5518 36.5476L39.1691 8.694C39.1569 7.80081 38.9728 6.93208 38.6101 6.12828L38.6027 6.11188L38.5948 6.09576C38.226 5.35122 37.7747 4.66758 37.1671 4.07648C36.5753 3.50071 35.8776 3.02567 35.0764 2.69036Z" fill="#F4F528"/>
<path d="M35.0764 2.69036L35.0694 2.6874L35.0622 2.68455C34.233 2.35231 33.3949 2.18972 32.4669 2.20247L3.55565 2.5997C3.10533 2.60589 2.57357 2.71983 2.16893 3.13575C1.76428 3.55167 1.66499 4.08636 1.67118 4.53668L2.11806 37.0619C2.12425 37.5122 2.2382 38.044 2.65411 38.4486C3.07003 38.8533 3.60472 38.9526 4.05504 38.9464L10.6659 38.8555C11.1162 38.8493 11.6479 38.7354 12.0526 38.3195C12.4572 37.9036 12.5565 37.3689 12.5503 36.9186L12.2161 12.5917L15.5931 12.5453L15.9273 36.8722C15.9346 37.4013 16.134 37.8588 16.5032 38.2179C16.8724 38.5771 17.3352 38.7639 17.8643 38.7566L23.9169 38.6735C24.3782 38.6671 24.9219 38.4888 25.2934 38.0302C25.5714 37.6872 25.7497 37.2567 25.7426 36.7373L25.4083 12.4104L28.7853 12.364L29.1196 36.6909C29.1267 37.2103 29.3168 37.6358 29.6041 37.971C29.9771 38.4064 30.4871 38.5832 30.9978 38.5762L37.6674 38.4845C38.1965 38.4773 38.654 38.2778 39.0131 37.9087C39.3723 37.5395 39.5591 37.0767 39.5518 36.5476L39.1691 8.694C39.1569 7.80081 38.9728 6.93208 38.6101 6.12828L38.6027 6.11188L38.5948 6.09576C38.226 5.35122 37.7747 4.66758 37.1671 4.07648C36.5753 3.50071 35.8776 3.02567 35.0764 2.69036Z" stroke="#F4F528" stroke-width="2"/>
<path d="M35.0764 2.69036L35.0694 2.6874L35.0622 2.68455C34.233 2.35231 33.3949 2.18972 32.4669 2.20247L3.55565 2.5997C3.10533 2.60589 2.57357 2.71983 2.16893 3.13575C1.76428 3.55167 1.66499 4.08636 1.67118 4.53668L2.11806 37.0619C2.12425 37.5122 2.2382 38.044 2.65411 38.4486C3.07003 38.8533 3.60472 38.9526 4.05504 38.9464L10.6659 38.8555C11.1162 38.8493 11.6479 38.7354 12.0526 38.3195C12.4572 37.9036 12.5565 37.3689 12.5503 36.9186L12.2161 12.5917L15.5931 12.5453L15.9273 36.8722C15.9346 37.4013 16.134 37.8588 16.5032 38.2179C16.8724 38.5771 17.3352 38.7639 17.8643 38.7566L23.9169 38.6735C24.3782 38.6671 24.9219 38.4888 25.2934 38.0302C25.5714 37.6872 25.7497 37.2567 25.7426 36.7373L25.4083 12.4104L28.7853 12.364L29.1196 36.6909C29.1267 37.2103 29.3168 37.6358 29.6041 37.971C29.9771 38.4064 30.4871 38.5832 30.9978 38.5762L37.6674 38.4845C38.1965 38.4773 38.654 38.2778 39.0131 37.9087C39.3723 37.5395 39.5591 37.0767 39.5518 36.5476L39.1691 8.694C39.1569 7.80081 38.9728 6.93208 38.6101 6.12828L38.6027 6.11188L38.5948 6.09576C38.226 5.35122 37.7747 4.66758 37.1671 4.07648C36.5753 3.50071 35.8776 3.02567 35.0764 2.69036Z" stroke="#414000" stroke-width="2"/>
<path d="M67.4943 27.7287L66.4944 27.7424L66.4948 27.7718L53.6276 27.9486L53.2966 3.85678C53.2901 3.38223 53.1564 2.84955 52.7337 2.44765C52.3151 2.04965 51.7778 1.93717 51.3004 1.94373L44.3077 2.03981C43.8303 2.04637 43.2963 2.17357 42.8888 2.58291C42.4773 2.99628 42.3583 3.53243 42.3648 4.00698L42.8113 36.5028C42.8178 36.9774 42.9515 37.51 43.3742 37.9119C43.7928 38.3099 44.3301 38.4224 44.8074 38.4159L67.6368 38.1022C68.1659 38.0949 68.6234 37.8955 68.9826 37.5263L69.0093 37.4988L69.0339 37.4693C69.3356 37.1074 69.5283 36.6749 69.5209 36.1358L69.4316 29.6425C69.425 29.1607 69.2569 28.6755 68.8862 28.2981C68.4942 27.8657 67.9533 27.7224 67.4943 27.7287ZM53.6284 28.0055C53.6287 28.0058 53.629 28.0061 53.6293 28.0064L53.6284 28.0055Z" fill="#F4F528"/>
<path d="M67.4943 27.7287L66.4944 27.7424L66.4948 27.7718L53.6276 27.9486L53.2966 3.85678C53.2901 3.38223 53.1564 2.84955 52.7337 2.44765C52.3151 2.04965 51.7778 1.93717 51.3004 1.94373L44.3077 2.03981C43.8303 2.04637 43.2963 2.17357 42.8888 2.58291C42.4773 2.99628 42.3583 3.53243 42.3648 4.00698L42.8113 36.5028C42.8178 36.9774 42.9515 37.51 43.3742 37.9119C43.7928 38.3099 44.3301 38.4224 44.8074 38.4159L67.6368 38.1022C68.1659 38.0949 68.6234 37.8955 68.9826 37.5263L69.0093 37.4988L69.0339 37.4693C69.3356 37.1074 69.5283 36.6749 69.5209 36.1358L69.4316 29.6425C69.425 29.1607 69.2569 28.6755 68.8862 28.2981C68.4942 27.8657 67.9533 27.7224 67.4943 27.7287ZM53.6284 28.0055C53.6287 28.0058 53.629 28.0061 53.6293 28.0064L53.6284 28.0055Z" stroke="#F4F528" stroke-width="2"/>
<path d="M67.4943 27.7287L66.4944 27.7424L66.4948 27.7718L53.6276 27.9486L53.2966 3.85678C53.2901 3.38223 53.1564 2.84955 52.7337 2.44765C52.3151 2.04965 51.7778 1.93717 51.3004 1.94373L44.3077 2.03981C43.8303 2.04637 43.2963 2.17357 42.8888 2.58291C42.4773 2.99628 42.3583 3.53243 42.3648 4.00698L42.8113 36.5028C42.8178 36.9774 42.9515 37.51 43.3742 37.9119C43.7928 38.3099 44.3301 38.4224 44.8074 38.4159L67.6368 38.1022C68.1659 38.0949 68.6234 37.8955 68.9826 37.5263L69.0093 37.4988L69.0339 37.4693C69.3356 37.1074 69.5283 36.6749 69.5209 36.1358L69.4316 29.6425C69.425 29.1607 69.2569 28.6755 68.8862 28.2981C68.4942 27.8657 67.9533 27.7224 67.4943 27.7287ZM53.6284 28.0055C53.6287 28.0058 53.629 28.0061 53.6293 28.0064L53.6284 28.0055Z" stroke="#414000" stroke-width="2"/>
<path d="M103.609 1.78242C103.217 1.40077 102.713 1.23732 102.218 1.24412L95.1081 1.34182C94.6132 1.34862 94.1146 1.52582 93.733 1.91811C93.3618 2.29961 93.1577 2.75643 93.1653 3.30899L93.3159 14.2673L83.4456 14.4029L83.295 3.4446C83.2885 2.97005 83.1549 2.43737 82.7321 2.03547C82.3135 1.63747 81.7763 1.52499 81.2989 1.53155L74.2474 1.62844C73.77 1.63499 73.236 1.76219 72.8285 2.17154C72.417 2.5849 72.298 3.12105 72.3045 3.59561L72.7522 36.1796C72.7587 36.6541 72.8924 37.1868 73.3151 37.5887C73.7337 37.9867 74.271 38.0992 74.7484 38.0926L81.7999 37.9957C82.2773 37.9892 82.8112 37.862 83.2188 37.4526C83.6303 37.0393 83.7492 36.5031 83.7427 36.0286L83.5881 24.7764L93.4584 24.6408L93.613 35.893C93.6209 36.4663 93.8837 36.9418 94.2187 37.2677C94.611 37.6494 95.1142 37.8128 95.6092 37.806L102.719 37.7083C103.214 37.7015 103.713 37.5243 104.095 37.132C104.466 36.7505 104.67 36.2937 104.662 35.7411L104.215 3.15717C104.207 2.58383 103.944 2.10833 103.609 1.78242Z" fill="#F4F528"/>
<path d="M103.609 1.78242C103.217 1.40077 102.713 1.23732 102.218 1.24412L95.1081 1.34182C94.6132 1.34862 94.1146 1.52582 93.733 1.91811C93.3618 2.29961 93.1577 2.75643 93.1653 3.30899L93.3159 14.2673L83.4456 14.4029L83.295 3.4446C83.2885 2.97005 83.1549 2.43737 82.7321 2.03547C82.3135 1.63747 81.7763 1.52499 81.2989 1.53155L74.2474 1.62844C73.77 1.63499 73.236 1.76219 72.8285 2.17154C72.417 2.5849 72.298 3.12105 72.3045 3.59561L72.7522 36.1796C72.7587 36.6541 72.8924 37.1868 73.3151 37.5887C73.7337 37.9867 74.271 38.0992 74.7484 38.0926L81.7999 37.9957C82.2773 37.9892 82.8112 37.862 83.2188 37.4526C83.6303 37.0393 83.7492 36.5031 83.7427 36.0286L83.5881 24.7764L93.4584 24.6408L93.613 35.893C93.6209 36.4663 93.8837 36.9418 94.2187 37.2677C94.611 37.6494 95.1142 37.8128 95.6092 37.806L102.719 37.7083C103.214 37.7015 103.713 37.5243 104.095 37.132C104.466 36.7505 104.67 36.2937 104.662 35.7411L104.215 3.15717C104.207 2.58383 103.944 2.10833 103.609 1.78242Z" stroke="#F4F528" stroke-width="2"/>
<path d="M103.609 1.78242C103.217 1.40077 102.713 1.23732 102.218 1.24412L95.1081 1.34182C94.6132 1.34862 94.1146 1.52582 93.733 1.91811C93.3618 2.29961 93.1577 2.75643 93.1653 3.30899L93.3159 14.2673L83.4456 14.4029L83.295 3.4446C83.2885 2.97005 83.1549 2.43737 82.7321 2.03547C82.3135 1.63747 81.7763 1.52499 81.2989 1.53155L74.2474 1.62844C73.77 1.63499 73.236 1.76219 72.8285 2.17154C72.417 2.5849 72.298 3.12105 72.3045 3.59561L72.7522 36.1796C72.7587 36.6541 72.8924 37.1868 73.3151 37.5887C73.7337 37.9867 74.271 38.0992 74.7484 38.0926L81.7999 37.9957C82.2773 37.9892 82.8112 37.862 83.2188 37.4526C83.6303 37.0393 83.7492 36.5031 83.7427 36.0286L83.5881 24.7764L93.4584 24.6408L93.613 35.893C93.6209 36.4663 93.8837 36.9418 94.2187 37.2677C94.611 37.6494 95.1142 37.8128 95.6092 37.806L102.719 37.7083C103.214 37.7015 103.713 37.5243 104.095 37.132C104.466 36.7505 104.67 36.2937 104.662 35.7411L104.215 3.15717C104.207 2.58383 103.944 2.10833 103.609 1.78242Z" stroke="#414000" stroke-width="2"/>
</svg>
