<svg width="40" height="41" viewBox="0 0 40 41" fill="none" xmlns="http://www.w3.org/2000/svg">
<rect y="0.990723" width="40" height="40" rx="6" fill="white"/>
<path d="M32 14.2086C31.1542 14.5834 30.2456 14.8366 29.2904 14.9511C30.276 14.3613 31.0133 13.4331 31.3649 12.3397C30.4389 12.8897 29.4254 13.2769 28.3686 13.4843C27.6579 12.7255 26.7165 12.2225 25.6907 12.0535C24.6648 11.8845 23.6119 12.0589 22.6953 12.5496C21.7787 13.0404 21.0498 13.82 20.6217 14.7674C20.1936 15.7149 20.0903 16.7772 20.3278 17.7894C18.4515 17.6952 16.616 17.2075 14.9404 16.358C13.2647 15.5085 11.7865 14.3161 10.6015 12.8583C10.1963 13.5573 9.96331 14.3676 9.96331 15.2307C9.96286 16.0076 10.1542 16.7726 10.5203 17.4579C10.8864 18.1431 11.416 18.7274 12.0621 19.1589C11.3128 19.135 10.5801 18.9326 9.92482 18.5683V18.6291C9.92475 19.7188 10.3017 20.7749 10.9916 21.6183C11.6816 22.4617 12.6421 23.0404 13.7102 23.2562C13.0151 23.4444 12.2863 23.4721 11.579 23.3373C11.8803 24.2749 12.4673 25.0948 13.2578 25.6822C14.0483 26.2696 15.0026 26.5951 15.9873 26.6132C14.3158 27.9253 12.2514 28.6371 10.1264 28.634C9.74997 28.6341 9.37386 28.6121 9 28.5681C11.157 29.955 13.668 30.6911 16.2324 30.6882C24.9134 30.6882 29.6591 23.4983 29.6591 17.2626C29.6591 17.06 29.654 16.8554 29.6449 16.6528C30.568 15.9853 31.3648 15.1586 31.998 14.2116L32 14.2086V14.2086Z" fill="#887CA4"/>
</svg>
