<svg width="40" height="41" viewBox="0 0 40 41" fill="none" xmlns="http://www.w3.org/2000/svg">
<rect y="0.990723" width="40" height="40" rx="6" fill="white"/>
<path d="M10.6439 14.5866C12.2551 14.5866 13.5612 13.2805 13.5612 11.6693C13.5612 10.0581 12.2551 8.75195 10.6439 8.75195C9.0327 8.75195 7.72656 10.0581 7.72656 11.6693C7.72656 13.2805 9.0327 14.5866 10.6439 14.5866Z" fill="#887CA4"/>
<path d="M16.3158 16.7975V32.9828H21.3411V24.9788C21.3411 22.8668 21.7385 20.8215 24.3571 20.8215C26.9398 20.8215 26.9718 23.2361 26.9718 25.1121V32.9841H31.9998V24.1081C31.9998 19.7481 31.0611 16.3975 25.9651 16.3975C23.5185 16.3975 21.8785 17.7401 21.2078 19.0108H21.1398V16.7975H16.3158V16.7975ZM8.12646 16.7975H13.1598V32.9828H8.12646V16.7975Z" fill="#887CA4"/>
</svg>
