<svg width="1529" height="202" viewBox="0 0 1529 202" fill="none" xmlns="http://www.w3.org/2000/svg">
<path d="M1480.73 54.2499H1475.87L1480.01 52.3637L1458.96 0L1320.3 0.359279L1315.08 3.68253L1314 0.359279L1252.18 0.449088L1241.02 8.6225L1238.77 0.538912L1176.42 0.628721L1173.36 3.32325L1172.73 0.628721L1027.86 0.988L1024.35 5.74834L1023.63 0.988L886.136 1.34727L884.697 5.20943L884.427 1.34727L817.211 1.5269L808.302 53.6212V54.3397H806.863L805.783 1.5269L737.037 1.70654L466.013 2.33527L457.645 52.0045L487.789 84.6981L479.78 138.319L446.128 112.272H437.939L449.097 51.5554L398.617 2.5149L337.88 2.60472L337.16 5.65852L333.381 2.60472L205.607 2.96399L202.098 13.7421L184.552 2.96399L66.8561 3.23344L0 169.576L107.708 199.126L219.105 199.395L220.994 193.018L239.44 199.395L360.105 199.665L360.555 197.689L364.964 199.665L485.989 199.934L489.139 178.468L518.293 200.024L578.94 200.204L589.378 97.6318H591.087L584.789 167.33L611.963 200.204L673.96 200.383L674.14 195.623L676.3 200.383L738.657 200.473L802.724 200.653L809.022 165.444L808.662 148.469H811.182L812.801 200.653L875.159 200.832L876.958 197.779L877.138 200.832L939.225 200.922L943.814 196.252L944.264 201.012L1005.36 201.102L1009.77 197.868L1010.13 201.102L1146.09 201.371L1149.78 199.665L1150.14 201.461L1208.54 201.551L1220.51 196.791L1221.68 201.551L1279.8 201.731L1285.56 199.755L1286.1 201.731L1416.94 202L1528.06 171.911L1480.73 54.2499Z" fill="black"/>
<path d="M421.293 152.87L439.379 54.6993L394.928 11.4969L371.353 121.254L421.293 152.87Z" fill="#303030"/>
<path d="M435.512 164.187L358.667 164.097L361.097 152.78L334.642 138.499L364.156 138.589L372.075 102.213L352.369 88.7399H374.954L382.332 54.7889L330.143 11.5867L320.605 49.3999L252.669 49.4897L251.139 54.5195L182.033 11.946L177.714 24.7L189.592 31.7058L175.914 72.8422L131.013 50.2082H109.868L83.683 120.446L151.889 145.505L150.809 148.918H135.603L130.564 163.738L12.0576 163.558L108.878 190.144L212.357 190.324L214.966 181.521L240.971 190.413L352.908 190.683L354.168 184.935L366.856 190.683L478.253 190.952L483.922 152.959L443.07 121.254L435.512 164.187Z" fill="#303030"/>
<path d="M534.398 88.6502L502.185 49.1304H467.272L503.715 88.6502H534.398Z" fill="#303030"/>
<path d="M614.933 54.4296L594.417 10.958L590.728 49.0405H555.545L541.958 164.366L485 164.276L521.262 191.042L570.842 191.132L581.19 88.65H612.054L614.933 54.4296Z" fill="#303030"/>
<path d="M671.44 84.8779H686.107L675.219 44.7293L658.482 44.8191L656.233 82.6325L669.64 118.739L671.44 84.8779Z" fill="#303030"/>
<path d="M672.071 120.715H653.265L650.656 164.546L594.057 164.456L616.193 191.222L665.413 191.402L667.392 152.6L683.769 152.69L672.071 120.715Z" fill="#303030"/>
<path d="M726.598 164.636L669.91 164.546L682.147 191.401L731.457 191.491L733.707 54.3398L729.658 10.6885L726.598 164.636Z" fill="#303030"/>
<path d="M1374.01 165.624L1368.44 148.379L1441.32 121.703L1435.2 105.177H1354.31L1348.82 88.3808L1379.68 88.291L1468.49 47.7832L1389.94 47.873L1343.42 71.8544L1322.99 9.25143L1254.07 53.7112L1262.98 85.5066L1237.51 100.057H1249.48L1226.26 112.991H1240.84L1266.76 99.0691L1278 139.397H1317.06L1295.01 148.559L1294.02 144.876H1277.28L1270.99 122.242H1262.71L1213.13 146.852L1197.47 82.4528L1250.2 47.5138L1247.05 36.1967L1260.19 27.1251L1255.06 9.43107L1194.68 53.7112L1196.57 61.3457L1192.97 63.9504L1179.74 9.6107L1135.11 48.2323L1093.27 48.3221L1052.06 88.4706H1123.24L1134.12 79.9379L1151.85 165.265L1056.74 165.175L1032.36 9.96998L999.512 53.9806L1014.45 165.085L981.066 164.995L975.937 120.895H956.861L931.847 152.96H948.493L949.663 164.995L904.132 164.905L892.435 10.3292L876.688 54.1603L883.887 164.905L830.348 164.816L828.188 105.805H798.855L794.355 139.487H819.91L821.53 191.671L870.03 191.851L884.067 168.408L885.596 191.851L935.446 191.941L950.833 176.043L952.362 192.03L1002.39 192.12L1016.61 181.522L1018.05 192.12L1144.11 192.39L1156.26 186.731L1157.52 192.48L1206.83 192.569L1226.8 184.576L1228.78 192.659L1278.27 192.749L1291.68 188.078L1292.94 192.749L1415.77 193.018L1516 165.893L1374.01 165.624Z" fill="#303030"/>
<path d="M944.534 118.829L970.809 82.4528L966.4 44.3701H949.303L926.268 84.788H941.115L944.534 118.829Z" fill="#303030"/>
<path d="M826.659 63.3217L824.77 10.4191L817.301 54.2501L818.741 101.674L826.659 63.3217Z" fill="#303030"/>
<path d="M746.845 191.581L795.165 191.671L800.024 164.726L744.416 164.636L746.845 191.581Z" fill="#303030"/>
<path d="M177.714 24.7001H191.931L150.809 148.918H135.602L130.563 163.738L12.0576 163.558L72.975 12.2155L182.033 11.946L177.714 24.7001ZM105.728 120.446L131.103 50.1185H109.867L83.6828 120.356L105.728 120.446ZM212.176 11.8562L163.316 163.738L291.63 163.917L302.428 121.164H231.702L236.381 105.177H306.567L316.825 64.3995L248.259 64.4893L252.668 49.4898L320.694 49.4L330.232 11.6765L212.176 11.8562ZM344.989 11.5867L307.827 164.007L435.601 164.187L443.159 121.254H371.444L395.019 11.4969L344.989 11.5867ZM473.663 11.3173L467.274 49.2203L502.277 49.1305L485.09 164.277L541.959 164.367L555.636 49.0407L590.729 48.9509L594.508 10.958L473.663 11.3173ZM608.005 10.958L729.66 10.6886L726.601 164.636L669.822 164.546L671.982 120.715H653.176L650.566 164.546L594.058 164.456L608.005 10.958ZM673.332 82.6325L675.221 44.7294H658.485L656.235 82.5427L673.332 82.6325ZM1323 9.34129L1354.31 105.267H1435.21L1441.32 121.703H1359.71L1374.11 165.714L1516.01 165.893L1474.71 63.3217L1395.52 63.4115L1390.03 47.9629L1468.5 47.8731L1452.84 9.07184L1323 9.34129ZM1255.06 9.4311L1260.1 27.1252H1244.44L1250.11 47.5138H1242.19L1231.76 9.52093L1179.57 9.61074L1217.45 165.355L1274.41 165.444L1262.62 122.152H1270.9L1277.2 144.786H1293.93L1299.87 165.444L1357.1 165.534L1338.66 107.602H1320.21L1315.62 92.6022H1298.7L1293.57 75.5369H1310.31L1305.9 61.0762H1323.81L1307.34 9.34129L1255.06 9.4311ZM1032.36 9.97001L1056.74 165.175L1202.15 165.355L1191.9 121.524H1107.04L1093.28 48.3221L1174.62 48.2323L1165.53 9.70056L1032.36 9.97001ZM892.437 10.3293L1015.8 10.0598L1038.66 165.175L980.978 165.085L975.85 120.895H956.773L961.453 164.995L904.044 164.905L892.437 10.3293ZM970.811 82.4529L966.402 44.2804H949.395L953.444 82.363L970.811 82.4529ZM824.771 10.4191L826.66 63.3217H797.956L796.876 10.5089L745.857 10.5987L744.417 164.636L800.026 164.726L798.856 105.716H828.19L830.26 164.726L886.138 164.816L875.97 10.2395L824.771 10.4191Z" fill="white"/>
<path d="M904.131 164.905L957.58 164.995L953.261 124.487H957.22L956.86 120.895H975.936L981.065 165.085L1034.6 165.175L1012.29 13.6525L892.793 13.922L904.131 164.905ZM949.302 44.3701H966.308L970.717 82.5427H966.668L967.118 86.1354H949.752L945.703 48.0527H949.662L949.302 44.3701Z" fill="url(#paint0_linear_115_23)"/>
<path d="M1162.02 13.2932L1032.99 13.5627L1056.74 165.175L1197.74 165.355L1188.29 125.206L1103.44 125.116L1089.67 51.9149H1093.9L1093.27 48.3222L1170.21 48.2323L1162.02 13.2932Z" fill="url(#paint1_linear_115_23)"/>
<path d="M872.459 13.922L824.949 14.0118L826.658 63.3216H822.969L823.059 66.9143H794.445L793.365 14.1016L745.945 14.1914L744.415 164.636L796.335 164.726L795.255 109.398H798.944L798.854 105.805H828.188L830.348 164.815L882.357 164.905L872.459 13.922Z" fill="url(#paint2_linear_115_23)"/>
<path d="M1374.02 165.624L1510.97 165.804L1471.11 66.8247L1391.92 66.9145L1386.34 51.4659H1391.29L1389.94 47.8731L1463.46 47.7833L1449.24 12.5747L1324.17 12.8441L1354.31 105.177H1435.2L1441.32 121.703H1436.37L1437.72 125.296L1360.88 125.206L1374.02 165.624Z" fill="url(#paint3_linear_115_23)"/>
<path d="M1299.87 165.534L1352.33 165.624L1335.05 111.195H1316.7L1312.11 96.2849H1295.19L1290.06 79.1297H1294.74L1293.66 75.537H1305.72L1302.39 64.669H1307.07L1305.99 61.0763H1319.13L1303.83 12.934L1256.14 13.0238L1260.19 27.1252H1255.51L1256.59 30.7179L1245.52 30.8077L1250.2 47.5138H1245.61L1246.6 51.1065H1238.68L1228.34 13.1136L1180.65 13.2034L1217.63 165.355L1270 165.445L1259.11 125.835H1263.7L1262.71 122.242H1270.99L1277.29 144.876H1294.02L1299.87 165.534Z" fill="url(#paint4_linear_115_23)"/>
<path d="M391.329 15.0896L344.089 15.1794L307.736 164.007L432.54 164.187L439.469 124.847H367.754L391.329 15.0896Z" fill="url(#paint5_linear_115_23)"/>
<path d="M594.057 164.456L647.236 164.546L649.665 124.308H653.085L653.265 120.715H672.071L669.911 164.546L723.09 164.636L726.059 14.2812L607.734 14.5507L594.057 164.456ZM654.884 48.4119H658.304L658.484 44.8192H675.22L673.33 82.7222H669.911L669.731 86.3149H652.635L654.884 48.4119Z" fill="url(#paint6_linear_115_23)"/>
<path d="M188.241 28.203H174.024L178.343 15.4488L71.4451 15.7183L11.9675 163.468L128.133 163.648L131.913 152.421H134.252L135.512 148.828H148.289L188.241 28.203ZM105.728 120.446H103.388L102.129 124.038H80.0833L106.268 53.801H108.517L109.867 50.2083H131.103L105.728 120.446Z" fill="url(#paint7_linear_115_23)"/>
<path d="M590.816 14.5507L473.031 14.8201L467.272 49.1304H502.185L484.998 164.276L538.717 164.366L551.944 52.6333H555.184L555.544 49.0406H587.487L590.816 14.5507Z" fill="url(#paint8_linear_115_23)"/>
<path d="M313.225 67.9922L244.659 68.082L249.068 53.0825H251.588L252.667 49.4898L317.994 49.3999L326.542 15.1794L211.006 15.4488L163.316 163.738L289.02 164.007L298.918 124.757H228.192L232.781 108.769H235.391L236.381 105.177H303.867L313.225 67.9922Z" fill="url(#paint9_linear_115_23)"/>
<defs>
<linearGradient id="paint0_linear_115_23" x1="963.64" y1="165.114" x2="963.64" y2="13.6059" gradientUnits="userSpaceOnUse">
<stop stop-color="#A9A29C"/>
<stop offset="0.1547" stop-color="#B8B1AB"/>
<stop offset="0.3877" stop-color="#C8C0BB"/>
<stop offset="0.65" stop-color="#D2C9C4"/>
<stop offset="1" stop-color="#D5CCC7"/>
</linearGradient>
<linearGradient id="paint1_linear_115_23" x1="1115.32" y1="165.365" x2="1115.32" y2="13.2564" gradientUnits="userSpaceOnUse">
<stop stop-color="#A9A29C"/>
<stop offset="0.1547" stop-color="#B8B1AB"/>
<stop offset="0.3877" stop-color="#C8C0BB"/>
<stop offset="0.65" stop-color="#D2C9C4"/>
<stop offset="1" stop-color="#D5CCC7"/>
</linearGradient>
<linearGradient id="paint2_linear_115_23" x1="813.364" y1="164.88" x2="813.364" y2="13.9323" gradientUnits="userSpaceOnUse">
<stop stop-color="#A9A29C"/>
<stop offset="0.1547" stop-color="#B8B1AB"/>
<stop offset="0.3877" stop-color="#C8C0BB"/>
<stop offset="0.65" stop-color="#D2C9C4"/>
<stop offset="1" stop-color="#D5CCC7"/>
</linearGradient>
<linearGradient id="paint3_linear_115_23" x1="1417.54" y1="165.846" x2="1417.54" y2="12.5859" gradientUnits="userSpaceOnUse">
<stop stop-color="#A9A29C"/>
<stop offset="0.1547" stop-color="#B8B1AB"/>
<stop offset="0.3877" stop-color="#C8C0BB"/>
<stop offset="0.65" stop-color="#D2C9C4"/>
<stop offset="1" stop-color="#D5CCC7"/>
</linearGradient>
<linearGradient id="paint4_linear_115_23" x1="1266.48" y1="165.602" x2="1266.48" y2="12.9253" gradientUnits="userSpaceOnUse">
<stop stop-color="#A9A29C"/>
<stop offset="0.1547" stop-color="#B8B1AB"/>
<stop offset="0.3877" stop-color="#C8C0BB"/>
<stop offset="0.65" stop-color="#D2C9C4"/>
<stop offset="1" stop-color="#D5CCC7"/>
</linearGradient>
<linearGradient id="paint5_linear_115_23" x1="373.626" y1="164.189" x2="373.626" y2="15.0552" gradientUnits="userSpaceOnUse">
<stop stop-color="#A9A29C"/>
<stop offset="0.1547" stop-color="#B8B1AB"/>
<stop offset="0.3877" stop-color="#C8C0BB"/>
<stop offset="0.65" stop-color="#D2C9C4"/>
<stop offset="1" stop-color="#D5CCC7"/>
</linearGradient>
<linearGradient id="paint6_linear_115_23" x1="660.074" y1="164.635" x2="660.074" y2="14.2739" gradientUnits="userSpaceOnUse">
<stop stop-color="#A9A29C"/>
<stop offset="0.1547" stop-color="#B8B1AB"/>
<stop offset="0.3877" stop-color="#C8C0BB"/>
<stop offset="0.65" stop-color="#D2C9C4"/>
<stop offset="1" stop-color="#D5CCC7"/>
</linearGradient>
<linearGradient id="paint7_linear_115_23" x1="100.175" y1="163.722" x2="100.175" y2="15.5522" gradientUnits="userSpaceOnUse">
<stop stop-color="#A9A29C"/>
<stop offset="0.1547" stop-color="#B8B1AB"/>
<stop offset="0.3877" stop-color="#C8C0BB"/>
<stop offset="0.65" stop-color="#D2C9C4"/>
<stop offset="1" stop-color="#D5CCC7"/>
</linearGradient>
<linearGradient id="paint8_linear_115_23" x1="529.039" y1="164.352" x2="529.039" y2="14.5896" gradientUnits="userSpaceOnUse">
<stop stop-color="#A9A29C"/>
<stop offset="0.1547" stop-color="#B8B1AB"/>
<stop offset="0.3877" stop-color="#C8C0BB"/>
<stop offset="0.65" stop-color="#D2C9C4"/>
<stop offset="1" stop-color="#D5CCC7"/>
</linearGradient>
<linearGradient id="paint9_linear_115_23" x1="244.966" y1="163.969" x2="244.966" y2="15.2064" gradientUnits="userSpaceOnUse">
<stop stop-color="#A9A29C"/>
<stop offset="0.1547" stop-color="#B8B1AB"/>
<stop offset="0.3877" stop-color="#C8C0BB"/>
<stop offset="0.65" stop-color="#D2C9C4"/>
<stop offset="1" stop-color="#D5CCC7"/>
</linearGradient>
</defs>
</svg>
